<?xml version="1.0" encoding="UTF-8"?>
<!--Generator: Apple Native CoreSVG 175.5-->
<!DOCTYPE svg
PUBLIC "-//W3C//DTD SVG 1.1//EN"
       "http://www.w3.org/Graphics/SVG/1.1/DTD/svg11.dtd">
<svg version="1.1" xmlns="http://www.w3.org/2000/svg" xmlns:xlink="http://www.w3.org/1999/xlink" width="3300" height="2200">
 <!--glyph: "", point size: 100.0, font version: "18.0d12e2", template writer version: "101"-->
 <g id="Notes">
  <rect height="2200" id="artboard" style="fill:white;opacity:1" width="3300" x="0" y="0"/>
  <line style="fill:none;stroke:black;opacity:1;stroke-width:0.5;" x1="263" x2="3036" y1="292" y2="292"/>
  <text style="stroke:none;fill:black;font-family:sans-serif;font-size:13;font-weight:bold;" transform="matrix(1 0 0 1 263 322)">Weight/Scale Variations</text>
  <text style="stroke:none;fill:black;font-family:sans-serif;font-size:13;text-anchor:middle;" transform="matrix(1 0 0 1 559.711 322)">Ultralight</text>
  <text style="stroke:none;fill:black;font-family:sans-serif;font-size:13;text-anchor:middle;" transform="matrix(1 0 0 1 856.422 322)">Thin</text>
  <text style="stroke:none;fill:black;font-family:sans-serif;font-size:13;text-anchor:middle;" transform="matrix(1 0 0 1 1153.13 322)">Light</text>
  <text style="stroke:none;fill:black;font-family:sans-serif;font-size:13;text-anchor:middle;" transform="matrix(1 0 0 1 1449.84 322)">Regular</text>
  <text style="stroke:none;fill:black;font-family:sans-serif;font-size:13;text-anchor:middle;" transform="matrix(1 0 0 1 1746.56 322)">Medium</text>
  <text style="stroke:none;fill:black;font-family:sans-serif;font-size:13;text-anchor:middle;" transform="matrix(1 0 0 1 2043.27 322)">Semibold</text>
  <text style="stroke:none;fill:black;font-family:sans-serif;font-size:13;text-anchor:middle;" transform="matrix(1 0 0 1 2339.98 322)">Bold</text>
  <text style="stroke:none;fill:black;font-family:sans-serif;font-size:13;text-anchor:middle;" transform="matrix(1 0 0 1 2636.69 322)">Heavy</text>
  <text style="stroke:none;fill:black;font-family:sans-serif;font-size:13;text-anchor:middle;" transform="matrix(1 0 0 1 2933.4 322)">Black</text>
  <line style="fill:none;stroke:black;opacity:1;stroke-width:0.5;" x1="263" x2="3036" y1="1903" y2="1903"/>
  <g transform="matrix(1 0 0 1 263 1933)">
   <path d="M9.24805 0.830078C13.5547 0.830078 17.1387-2.74414 17.1387-7.05078C17.1387-11.3574 13.5449-14.9316 9.23828-14.9316C4.94141-14.9316 1.36719-11.3574 1.36719-7.05078C1.36719-2.74414 4.95117 0.830078 9.24805 0.830078ZM9.24805-0.654297C5.70312-0.654297 2.87109-3.49609 2.87109-7.05078C2.87109-10.6055 5.69336-13.4473 9.23828-13.4473C12.793-13.4473 15.6445-10.6055 15.6445-7.05078C15.6445-3.49609 12.8027-0.654297 9.24805-0.654297ZM5.6543-7.05078C5.6543-6.62109 5.95703-6.32812 6.40625-6.32812L8.50586-6.32812L8.50586-4.20898C8.50586-3.76953 8.79883-3.4668 9.22852-3.4668C9.67773-3.4668 9.9707-3.76953 9.9707-4.20898L9.9707-6.32812L12.0898-6.32812C12.5293-6.32812 12.832-6.62109 12.832-7.05078C12.832-7.49023 12.5293-7.79297 12.0898-7.79297L9.9707-7.79297L9.9707-9.90234C9.9707-10.3516 9.67773-10.6543 9.22852-10.6543C8.79883-10.6543 8.50586-10.3516 8.50586-9.90234L8.50586-7.79297L6.40625-7.79297C5.95703-7.79297 5.6543-7.49023 5.6543-7.05078Z"/>
  </g>
  <g transform="matrix(1 0 0 1 281.867 1933)">
   <path d="M11.709 2.91016C17.1582 2.91016 21.6699-1.61133 21.6699-7.05078C21.6699-12.5 17.1484-17.0117 11.6992-17.0117C6.25977-17.0117 1.74805-12.5 1.74805-7.05078C1.74805-1.61133 6.26953 2.91016 11.709 2.91016ZM11.709 1.25C7.09961 1.25 3.41797-2.44141 3.41797-7.05078C3.41797-11.6602 7.08984-15.3516 11.6992-15.3516C16.3086-15.3516 20.0098-11.6602 20.0098-7.05078C20.0098-2.44141 16.3184 1.25 11.709 1.25ZM7.17773-7.05078C7.17773-6.57227 7.50977-6.25 8.00781-6.25L10.8789-6.25L10.8789-3.36914C10.8789-2.88086 11.2109-2.53906 11.6895-2.53906C12.1777-2.53906 12.5195-2.87109 12.5195-3.36914L12.5195-6.25L15.4004-6.25C15.8887-6.25 16.2305-6.57227 16.2305-7.05078C16.2305-7.53906 15.8887-7.88086 15.4004-7.88086L12.5195-7.88086L12.5195-10.752C12.5195-11.25 12.1777-11.5918 11.6895-11.5918C11.2109-11.5918 10.8789-11.25 10.8789-10.752L10.8789-7.88086L8.00781-7.88086C7.50977-7.88086 7.17773-7.53906 7.17773-7.05078Z"/>
  </g>
  <g transform="matrix(1 0 0 1 305.646 1933)">
   <path d="M14.9707 5.66406C21.9336 5.66406 27.6953-0.0976562 27.6953-7.05078C27.6953-14.0137 21.9238-19.7754 14.9609-19.7754C8.00781-19.7754 2.25586-14.0137 2.25586-7.05078C2.25586-0.0976562 8.01758 5.66406 14.9707 5.66406ZM14.9707 3.84766C8.93555 3.84766 4.08203-1.01562 4.08203-7.05078C4.08203-13.0957 8.92578-17.9492 14.9609-17.9492C21.0059-17.9492 25.8691-13.0957 25.8691-7.05078C25.8691-1.01562 21.0156 3.84766 14.9707 3.84766ZM9.19922-7.05078C9.19922-6.5332 9.57031-6.17188 10.1172-6.17188L14.0625-6.17188L14.0625-2.2168C14.0625-1.67969 14.4336-1.29883 14.9512-1.29883C15.4883-1.29883 15.8594-1.66992 15.8594-2.2168L15.8594-6.17188L19.8145-6.17188C20.3516-6.17188 20.7324-6.5332 20.7324-7.05078C20.7324-7.59766 20.3613-7.96875 19.8145-7.96875L15.8594-7.96875L15.8594-11.9141C15.8594-12.4609 15.4883-12.8418 14.9512-12.8418C14.4336-12.8418 14.0625-12.4609 14.0625-11.9141L14.0625-7.96875L10.1172-7.96875C9.57031-7.96875 9.19922-7.59766 9.19922-7.05078Z"/>
  </g>
  <text style="stroke:none;fill:black;font-family:sans-serif;font-size:13;font-weight:bold;" transform="matrix(1 0 0 1 263 1953)">Design Variations</text>
  <text style="stroke:none;fill:black;font-family:sans-serif;font-size:13;" transform="matrix(1 0 0 1 263 1971)">Symbols are supported in up to nine weights and three scales.</text>
  <text style="stroke:none;fill:black;font-family:sans-serif;font-size:13;" transform="matrix(1 0 0 1 263 1989)">For optimal layout with text and other symbols, vertically align</text>
  <text style="stroke:none;fill:black;font-family:sans-serif;font-size:13;" transform="matrix(1 0 0 1 263 2007)">symbols with the adjacent text.</text>
  <line style="fill:none;stroke:#00AEEF;stroke-width:0.5;opacity:1.0;" x1="776" x2="776" y1="1919" y2="1933"/>
  <g transform="matrix(1 0 0 1 776 1933)">
   <path d="M3.31055 0.15625C3.82812 0.15625 4.08203-0.0390625 4.26758-0.585938L5.52734-4.0332L11.2891-4.0332L12.5488-0.585938C12.7344-0.0390625 12.9883 0.15625 13.4961 0.15625C14.0137 0.15625 14.3457-0.15625 14.3457-0.644531C14.3457-0.810547 14.3164-0.966797 14.2383-1.17188L9.6582-13.3691C9.43359-13.9648 9.0332-14.2676 8.4082-14.2676C7.80273-14.2676 7.39258-13.9746 7.17773-13.3789L2.59766-1.16211C2.51953-0.957031 2.49023-0.800781 2.49023-0.634766C2.49023-0.146484 2.80273 0.15625 3.31055 0.15625ZM6.00586-5.51758L8.37891-12.0898L8.42773-12.0898L10.8008-5.51758Z"/>
  </g>
  <line style="fill:none;stroke:#00AEEF;stroke-width:0.5;opacity:1.0;" x1="793.197" x2="793.197" y1="1919" y2="1933"/>
  <text style="stroke:none;fill:black;font-family:sans-serif;font-size:13;font-weight:bold;" transform="matrix(1 0 0 1 776 1953)">Margins</text>
  <text style="stroke:none;fill:black;font-family:sans-serif;font-size:13;" transform="matrix(1 0 0 1 776 1971)">Leading and trailing margins on the left and right side of each symbol</text>
  <text style="stroke:none;fill:black;font-family:sans-serif;font-size:13;" transform="matrix(1 0 0 1 776 1989)">can be adjusted by modifying the x-location of the margin guidelines.</text>
  <text style="stroke:none;fill:black;font-family:sans-serif;font-size:13;" transform="matrix(1 0 0 1 776 2007)">Modifications are automatically applied proportionally to all</text>
  <text style="stroke:none;fill:black;font-family:sans-serif;font-size:13;" transform="matrix(1 0 0 1 776 2025)">scales and weights.</text>
  <g transform="matrix(1 0 0 1 1289 1933)">
   <path d="M2.8418 1.86523L4.54102 3.57422C5.40039 4.44336 6.38672 4.38477 7.31445 3.35938L18.0078-8.42773L17.041-9.4043L6.42578 2.27539C6.07422 2.67578 5.74219 2.77344 5.27344 2.30469L4.10156 1.14258C3.63281 0.683594 3.74023 0.341797 4.14062-0.0195312L15.6152-10.8203L14.6387-11.7871L3.04688-0.898438C2.06055 0.0195312 1.98242 0.996094 2.8418 1.86523ZM9.25781-16.3281C8.83789-15.918 8.80859-15.3418 9.04297-14.9512C9.27734-14.5898 9.73633-14.3555 10.3809-14.5215C11.8457-14.8633 13.3691-14.9219 14.7949-13.9844L14.209-12.5293C13.8672-11.6992 14.043-11.1133 14.5801-10.5664L16.875-8.25195C17.3633-7.76367 17.7734-7.74414 18.3398-7.8418L19.4043-8.03711L20.0684-7.36328L20.0293-6.80664C19.9902-6.30859 20.1172-5.92773 20.6055-5.44922L21.3672-4.70703C21.8457-4.22852 22.4609-4.19922 22.9297-4.66797L25.8398-7.58789C26.3086-8.05664 26.2891-8.65234 25.8105-9.13086L25.0391-9.89258C24.5605-10.3711 24.1895-10.5273 23.7109-10.4883L23.1348-10.4395L22.4902-11.0742L22.7344-12.1973C22.8613-12.7637 22.7051-13.2031 22.1191-13.7891L19.9219-15.9766C16.582-19.2969 12.1484-19.2188 9.25781-16.3281ZM10.752-15.957C13.1836-17.7344 16.4746-17.4316 18.7012-15.2051L21.1328-12.793C21.3672-12.5586 21.4062-12.373 21.3379-12.0312L21.0156-10.5469L22.5195-9.0625L23.5059-9.12109C23.7598-9.13086 23.8379-9.11133 24.0332-8.91602L24.6094-8.33984L22.168-5.89844L21.5918-6.47461C21.3965-6.66992 21.3672-6.74805 21.377-7.01172L21.4453-7.98828L19.9512-9.47266L18.4277-9.21875C18.1055-9.15039 17.959-9.17969 17.7148-9.41406L15.7129-11.416C15.459-11.6504 15.4297-11.8164 15.5859-12.1875L16.4648-14.2773C14.9023-15.7324 12.8711-16.3574 10.8398-15.7617C10.6836-15.7227 10.625-15.8496 10.752-15.957Z"/>
  </g>
  <text style="stroke:none;fill:black;font-family:sans-serif;font-size:13;font-weight:bold;" transform="matrix(1 0 0 1 1289 1953)">Exporting</text>
  <text style="stroke:none;fill:black;font-family:sans-serif;font-size:13;" transform="matrix(1 0 0 1 1289 1971)">Symbols should be outlined when exporting to ensure the</text>
  <text style="stroke:none;fill:black;font-family:sans-serif;font-size:13;" transform="matrix(1 0 0 1 1289 1989)">design is preserved when submitting to Xcode.</text>
  <text id="template-version" style="stroke:none;fill:black;font-family:sans-serif;font-size:13;text-anchor:end;" transform="matrix(1 0 0 1 3036 1933)">Template v.4.0</text>
  <text style="stroke:none;fill:black;font-family:sans-serif;font-size:13;text-anchor:end;" transform="matrix(1 0 0 1 3036 1951)">Requires Xcode 14 or greater</text>
  <text id="descriptive-name" style="stroke:none;fill:black;font-family:sans-serif;font-size:13;text-anchor:end;" transform="matrix(1 0 0 1 3036 1969)">Generated from IncludeEnvironment-authored</text>
  <text style="stroke:none;fill:black;font-family:sans-serif;font-size:13;text-anchor:end;" transform="matrix(1 0 0 1 3036 1987)">Typeset at 100 points</text>
  <text style="stroke:none;fill:black;font-family:sans-serif;font-size:13;" transform="matrix(1 0 0 1 263 726)">Small</text>
  <text style="stroke:none;fill:black;font-family:sans-serif;font-size:13;" transform="matrix(1 0 0 1 263 1156)">Medium</text>
  <text style="stroke:none;fill:black;font-family:sans-serif;font-size:13;" transform="matrix(1 0 0 1 263 1586)">Large</text>
 </g>
 <g id="Guides">
  <g id="H-reference" style="fill:#27AAE1;stroke:none;" transform="matrix(1 0 0 1 339 696)">
   <path d="M0.993654 0L3.63775 0L29.3281-67.1323L30.0303-67.1323L30.0303-70.459L28.1226-70.459ZM11.6885-24.4799L46.9815-24.4799L46.2315-26.7285L12.4385-26.7285ZM55.1196 0L57.7637 0L30.6382-70.459L29.4326-70.459L29.4326-67.1323Z"/>
  </g>
  <line id="Baseline-S" style="fill:none;stroke:#27AAE1;opacity:1;stroke-width:0.5;" x1="263" x2="3036" y1="696" y2="696"/>
  <line id="Capline-S" style="fill:none;stroke:#27AAE1;opacity:1;stroke-width:0.5;" x1="263" x2="3036" y1="625.541" y2="625.541"/>
  <g id="H-reference" style="fill:#27AAE1;stroke:none;" transform="matrix(1 0 0 1 339 1126)">
   <path d="M0.993654 0L3.63775 0L29.3281-67.1323L30.0303-67.1323L30.0303-70.459L28.1226-70.459ZM11.6885-24.4799L46.9815-24.4799L46.2315-26.7285L12.4385-26.7285ZM55.1196 0L57.7637 0L30.6382-70.459L29.4326-70.459L29.4326-67.1323Z"/>
  </g>
  <line id="Baseline-M" style="fill:none;stroke:#27AAE1;opacity:1;stroke-width:0.5;" x1="263" x2="3036" y1="1126" y2="1126"/>
  <line id="Capline-M" style="fill:none;stroke:#27AAE1;opacity:1;stroke-width:0.5;" x1="263" x2="3036" y1="1055.54" y2="1055.54"/>
  <g id="H-reference" style="fill:#27AAE1;stroke:none;" transform="matrix(1 0 0 1 339 1556)">
   <path d="M0.993654 0L3.63775 0L29.3281-67.1323L30.0303-67.1323L30.0303-70.459L28.1226-70.459ZM11.6885-24.4799L46.9815-24.4799L46.2315-26.7285L12.4385-26.7285ZM55.1196 0L57.7637 0L30.6382-70.459L29.4326-70.459L29.4326-67.1323Z"/>
  </g>
  <line id="Baseline-L" style="fill:none;stroke:#27AAE1;opacity:1;stroke-width:0.5;" x1="263" x2="3036" y1="1556" y2="1556"/>
  <line id="Capline-L" style="fill:none;stroke:#27AAE1;opacity:1;stroke-width:0.5;" x1="263" x2="3036" y1="1485.54" y2="1485.54"/>
  <line id="left-margin-Ultralight-S" style="fill:none;stroke:#FF3B30;stroke-width:0.5;opacity:1.0;" x1="512.462" x2="512.462" y1="600.785" y2="720.121"/>
  <line id="right-margin-Ultralight-S" style="fill:none;stroke:#FF3B30;stroke-width:0.5;opacity:1.0;" x1="606.961" x2="606.961" y1="600.785" y2="720.121"/>
  <line id="left-margin-Regular-S" style="fill:none;stroke:#FF3B30;stroke-width:0.5;opacity:1.0;" x1="1401.19" x2="1401.19" y1="600.785" y2="720.121"/>
  <line id="right-margin-Regular-S" style="fill:none;stroke:#FF3B30;stroke-width:0.5;opacity:1.0;" x1="1498.5" x2="1498.5" y1="600.785" y2="720.121"/>
  <line id="left-margin-Black-S" style="fill:none;stroke:#FF3B30;stroke-width:0.5;opacity:1.0;" x1="2883.01" x2="2883.01" y1="600.785" y2="720.121"/>
  <line id="right-margin-Black-S" style="fill:none;stroke:#FF3B30;stroke-width:0.5;opacity:1.0;" x1="2983.79" x2="2983.79" y1="600.785" y2="720.121"/>
  <line id="left-margin-Regular-M" style="fill:none;stroke:#FF3B30;stroke-width:0.5;opacity:1.0;" x1="1388.09" x2="1388.09" y1="1030.79" y2="1150.12"/>
  <line id="right-margin-Regular-M" style="fill:none;stroke:#FF3B30;stroke-width:0.5;opacity:1.0;" x1="1511.6" x2="1511.6" y1="1030.79" y2="1150.12"/>
 </g>
 <g id="Symbols">
  <g id="Black-L" transform="matrix(1 0 0 1 2851.23 1556)">
   <path d="M29.3951-61.1394L29.3962-37.3206C29.3962-33.6916 30.0063-31.0122 31.2265-29.2833C32.4466-27.5534 34.2088-26.0272 36.5139-24.7048L75.7744-2.76782C78.5874-1.1748 83.6491-1.1748 86.4622-2.76782L124.922-24.7048C127.261-26.0272 129.032-27.5534 130.235-29.2833C131.439-31.0122 132.04-33.6916 132.04-37.3206L132.039-61.1124L178.668-33.7725C180.56-32.7 181.206-30.3256 180.112-28.4707C179.763-27.8789 179.26-27.3885 178.656-27.049L81.4355 27.6492C80.2164 28.3358 78.717 28.3358 77.4968 27.6492L-19.6751-27.021C-21.5713-28.088-22.2254-30.4592-21.1382-32.3185C-20.7864-32.9188-20.2775-33.4168-19.663-33.7584L29.3951-61.1394ZM44.3574-28.3502L74.3165-12.3001C78.693-9.98353 82.7165-9.98261 87.0803-12.3001L117.039-28.3502C121.564-30.7646 123.488-33.5484 123.488-39.1619L123.488-74.2544C123.488-79.0198 121.672-82.181 117.31-84.5089L89.3608-99.5488C83.9059-102.502 77.5055-102.502 72.0506-99.5488L44.1016-84.5089C39.7252-82.181 37.923-79.0198 37.923-74.2544L37.923-39.1619C37.923-33.5484 39.8465-30.7646 44.3574-28.3502ZM51.2244-37.5885C49.4106-38.6053 48.7168-39.7144 48.7168-41.5345L48.7168-67.7833L75.0459-53.5689L75.0459-24.5201L51.2244-37.5885ZM110.187-37.5885L86.3646-24.5201L86.3646-53.5689L112.695-67.7833L112.695-41.5345C112.695-39.7144 111.986-38.6053 110.187-37.5885ZM80.6979-63.4541L54.9285-77.3595L76.9959-89.2525C79.4775-90.5695 81.9338-90.584 84.4009-89.2525L106.482-77.3595L80.6979-63.4541Z"/>
  </g>
  <g id="Heavy-L" transform="matrix(1 0 0 1 2555.14 1556)">
   <path d="M28.8665-60.8168L28.8676-36.8652C28.8676-33.2159 29.4788-30.5215 30.7013-28.783C31.9237-27.0435 33.6891-25.5087 35.9985-24.1789L75.5098-1.93802C78.328-0.336112 82.8643-0.336112 85.6825-1.93802L124.57-24.1789C126.913-25.5087 128.687-27.0435 129.893-28.783C131.099-30.5215 131.701-33.2159 131.701-36.8652L131.7-60.7898L178.415-33.2972C180.311-32.2188 180.958-29.8311 179.862-27.9658C179.512-27.3708 179.009-26.8776 178.403-26.5362L81.0031 28.4673C79.7817 29.1577 78.2796 29.1577 77.0571 28.4673L-20.2944-26.508C-22.1941-27.581-22.8494-29.9655-21.7602-31.8351C-21.4078-32.4388-20.8979-32.9395-20.2823-33.2831L28.8665-60.8168ZM43.1433-27.9089L74.4806-10.869C78.4146-8.76655 82.0316-8.7622 85.953-10.869L117.29-27.9089C121.697-30.2901 123.66-32.9646 123.66-38.703L123.66-74.1194C123.66-78.7817 121.872-81.8446 117.704-84.1088L88.6548-99.9778C83.268-102.93 77.1868-102.93 71.8002-99.9778L42.7512-84.1088C38.5615-81.8446 36.7951-78.7817 36.7951-74.1194L36.7951-38.703C36.7951-32.9646 38.7537-30.2901 43.1433-27.9089ZM49.2919-36.2435C47.2732-37.3839 46.5474-38.5748 46.5474-40.5704L46.5474-68.8511L75.1221-53.1782L75.1221-21.9418L49.2919-36.2435ZM111.163-36.2435L85.3285-21.9418L85.3285-53.1782L113.908-68.8511L113.908-40.5704C113.908-38.5748 113.16-37.3839 111.163-36.2435ZM80.2147-62.1036L52.1147-77.4722L76.2518-90.7036C78.9273-92.159 81.5276-92.1802 84.1819-90.7036L108.336-77.4722L80.2147-62.1036Z"/>
  </g>
  <g id="Bold-L" transform="matrix(1 0 0 1 2259.21 1556)">
   <path d="M28.0288-60.3845L28.0299-36.2307C28.0299-32.5506 28.6436-29.8334 29.871-28.0803C31.0983-26.326 32.8708-24.7784 35.1895-23.4373L75.0601-0.805514C77.8897 0.809918 81.8436 0.809918 84.6732-0.805514L124.118-23.4373C126.47-24.7784 128.251-26.326 129.462-28.0803C130.673-29.8334 131.278-32.5506 131.278-36.2307L131.277-60.3572L178.18-32.6326C180.083-31.545 180.733-29.1372 179.633-27.2562C179.281-26.6561 178.776-26.1588 178.168-25.8145L80.3753 29.6534C79.1491 30.3496 77.6409 30.3496 76.4135 29.6534L-21.33-25.7861C-23.2374-26.8681-23.8953-29.2727-22.8017-31.1581C-22.4479-31.7669-21.936-32.2719-21.3179-32.6183L28.0288-60.3845ZM41.4827-27.2993L74.5504-9.07192C77.9694-7.22385 81.115-7.21358 84.5276-9.07192L117.595-27.2993C121.835-29.6238 123.795-32.1626 123.795-37.9206L123.795-74.0305C123.795-78.4705 122.063-81.3613 118.195-83.5055L87.5875-100.473C82.3785-103.367 76.7261-103.367 71.5173-100.473L40.9093-83.5055C37.0149-81.3613 35.3094-78.4705 35.3094-74.0305L35.3094-37.9206C35.3094-32.1626 37.26-29.6238 41.4827-27.2993ZM46.7578-34.4496C44.4754-35.7462 43.731-37.02 43.731-39.2236L43.731-70.1348L75.1567-52.6767L75.1567-18.6247L46.7578-34.4496ZM112.347-34.4496L83.9379-18.6247L83.9379-52.6767L115.374-70.1348L115.374-39.2236C115.374-37.02 114.603-35.7462 112.347-34.4496ZM79.5339-60.3648L48.4466-77.5528L75.3759-92.5315C78.1968-94.1024 80.9079-94.1291 83.7021-92.5315L110.648-77.5528L79.5339-60.3648Z"/>
  </g>
  <g id="Semibold-L" transform="matrix(1 0 0 1 1963.04 1556)">
   <path d="M27.4513-60.0865L27.4524-35.7932C27.4524-32.0919 28.0678-29.3591 29.2986-27.5958C30.5293-25.8314 32.3067-24.2748 34.6319-22.926L74.7501-0.0247705C77.5875 1.59998 81.14 1.59998 83.9774-0.0247705L123.806-22.926C126.165-24.2748 127.951-25.8314 129.165-27.5958C130.379-29.3591 130.986-32.0919 130.986-35.7932L130.985-60.059L178.017-32.1744C179.926-31.0806 180.578-28.6588 179.474-26.7669C179.122-26.1634 178.615-25.6632 178.005-25.317L79.9426 30.471C78.7129 31.1713 77.2005 31.1713 75.9698 30.471L-22.044-25.2884C-23.9566-26.3767-24.6164-28.7951-23.5198-30.6914C-23.165-31.3037-22.6516-31.8116-22.0318-32.1601L27.4513-60.0865ZM40.3378-26.879L74.5985-7.83301C77.6625-6.16032 80.4831-6.14598 83.5448-7.83301L117.806-26.879C121.93-29.1645 123.889-31.6096 123.889-37.3812L123.889-73.9692C123.889-78.256 122.195-81.0282 118.534-83.0896L86.8517-100.814C81.7653-103.668 76.4086-103.668 71.3222-100.814L39.6395-83.0896C35.9488-81.0282 34.2852-78.256 34.2852-73.9692L34.2852-37.3812C34.2852-31.6096 36.2302-29.1645 40.3378-26.879ZM45.0109-33.2129C42.5466-34.6172 41.7895-35.9481 41.7895-38.2951L41.7895-71.0198L75.1805-52.331L75.1805-16.3379L45.0109-33.2129ZM113.163-33.2129L82.9792-16.3379L82.9792-52.331L116.384-71.0198L116.384-38.2951C116.384-35.9481 115.597-34.6172 113.163-33.2129ZM79.0646-59.166L45.9179-77.6084L74.772-93.7916C77.6932-95.4422 80.4807-95.4727 83.3714-93.7916L112.242-77.6084L79.0646-59.166Z"/>
  </g>
  <g id="Medium-L" transform="matrix(1 0 0 1 1666.74 1556)">
   <path d="M27.0135-59.8605L27.0146-35.4615C27.0146-31.7441 27.6312-28.9994 28.8646-27.2285C30.0979-25.4564 31.879-23.8931 34.209-22.5384L74.5151 0.567222C77.3584 2.19904 80.6065 2.19904 83.4498 0.567222L123.57-22.5384C125.933-23.8931 127.723-25.4564 128.94-27.2285C130.157-28.9994 130.764-31.7441 130.764-35.4615L130.763-59.8329L177.894-31.8269C179.806-30.7284 180.46-28.2961 179.354-26.396C179.001-25.7899 178.493-25.2875 177.882-24.9397L79.6145 31.091C78.3822 31.7943 76.8667 31.7943 75.6334 31.091L-22.5853-24.911C-24.502-26.004-25.1631-28.433-24.0642-30.3375C-23.7087-30.9525-23.1942-31.4626-22.5731-31.8126L27.0135-59.8605ZM39.4697-26.5604L74.635-6.89361C77.4298-5.3539 80.0039-5.33648 82.7997-6.89361L117.965-26.5604C122.002-28.8163 123.959-31.1904 123.959-36.9722L123.959-73.9227C123.959-78.0933 122.294-80.7755 118.791-82.7742L86.2938-101.073C81.3003-103.896 76.1678-103.896 71.1743-101.073L38.6768-82.7742C35.1404-80.7755 33.5086-78.0933 33.5086-73.9227L33.5086-36.9722C33.5086-31.1904 35.4493-28.8163 39.4697-26.5604ZM43.6862-32.2752C41.0841-33.7612 40.3173-35.1354 40.3173-37.5911L40.3173-71.6908L75.1986-52.0689L75.1986-14.604L43.6862-32.2752ZM113.782-32.2752L82.2523-14.604L82.2523-52.0689L117.151-71.6908L117.151-37.5911C117.151-35.1354 116.351-33.7612 113.782-32.2752ZM78.7088-58.2571L44.0005-77.6505L74.3141-94.747C77.3113-96.4581 80.1568-96.4914 83.1206-94.747L113.45-77.6505L78.7088-58.2571Z"/>
  </g>
  <g id="Regular-L" transform="matrix(1 0 0 1 1370.57 1556)">
   <path d="M26.4423-59.5657L26.4434-35.0289C26.4434-31.2905 27.0618-28.5303 28.2985-26.7493C29.5351-24.9673 31.3211-23.3951 33.6574-22.0327L74.2085 1.33939C77.0596 2.98043 79.9106 2.98043 82.7617 1.33939L123.262-22.0327C125.631-23.3951 127.426-24.9673 128.646-26.7493C129.866-28.5303 130.476-31.2905 130.476-35.0289L130.474-59.538L177.734-31.3738C179.651-30.269 180.306-27.823 179.198-25.9121C178.843-25.3026 178.334-24.7974 177.721-24.4476L79.1865 31.8996C77.9509 32.6069 76.4312 32.6069 75.1945 31.8996L-23.2914-24.4188C-25.2133-25.518-25.8762-27.9607-24.7743-29.876C-24.4178-30.4944-23.902-31.0074-23.2792-31.3593L26.4423-59.5657ZM38.3375-26.1448L74.6826-5.66831C77.1262-4.30206 79.379-4.2806 81.8278-5.66831L118.173-26.1448C122.095-28.362 124.052-30.6435 124.052-36.4387L124.052-73.8621C124.052-77.8812 122.424-80.446 119.126-82.3628L85.5661-101.41C80.6938-104.194 75.8537-104.194 70.9814-101.41L37.421-82.3628C34.0859-80.446 32.4956-77.8812 32.4956-73.8621L32.4956-36.4387C32.4956-30.6435 34.4308-28.362 38.3375-26.1448ZM41.9585-31.0521C39.1765-32.6446 38.3971-34.0753 38.3971-36.6728L38.3971-72.566L75.2222-51.727L75.2222-12.3423L41.9585-31.0521ZM114.589-31.0521L81.3041-12.3423L81.3041-51.727L118.15-72.566L118.15-36.6728C118.15-34.0753 117.334-32.6446 114.589-31.0521ZM78.2446-57.0715L41.4996-77.7055L73.7169-95.9933C76.8132-97.7832 79.7343-97.8202 82.7935-95.9933L115.027-77.7055L78.2446-57.0715Z"/>
  </g>
  <g id="Light-L" transform="matrix(1 0 0 1 1074.45 1556)">
   <path d="M24.6856-59.0557L24.6867-34.1376C24.6867-30.3411 25.3136-27.5379 26.5674-25.7293C27.8212-23.9196 29.6319-22.323 32.0005-20.9394L73.1125 2.79582C76.003 4.46236 78.8935 4.46236 81.784 2.79582L122.844-20.9394C125.247-22.323 127.066-23.9196 128.303-25.7293C129.54-27.5379 130.158-30.3411 130.158-34.1376L130.157-59.0275L178.07-30.4256C180.013-29.3037 180.678-26.8197 179.554-24.8791C179.195-24.2601 178.678-23.7471 178.057-23.3919L78.1593 33.8309C76.9066 34.5492 75.3659 34.5492 74.1121 33.8309L-25.7361-23.3626C-27.6845-24.4789-28.3566-26.9595-27.2395-28.9046C-26.878-29.5326-26.355-30.0535-25.7236-30.411L24.6856-59.0557ZM36.1804-25.3187L73.8707-4.26931C76.1719-3.0091 78.3061-2.97284 80.6549-4.26931L118.345-25.3187C122.017-27.3956 123.651-29.5812 123.651-34.5196L123.651-74.3049C123.651-77.5624 122.184-79.6829 119.49-81.252L83.5876-101.518C79.4387-103.891 75.1107-103.891 70.9619-101.518L35.0595-81.252C32.3413-79.6829 30.8987-77.5624 30.8987-74.3049L30.8987-34.5196C30.8987-29.5812 32.4962-27.3956 36.1804-25.3187ZM39.304-28.9899C36.2754-30.7101 35.6197-32.0791 35.6197-34.76L35.6197-73.2021L74.8606-51.2679L74.8606-9.25577L39.304-28.9899ZM115.245-28.9899L79.6531-9.25577L79.6531-51.2679L118.93-73.2021L118.93-34.76C118.93-32.0791 118.25-30.7101 115.245-28.9899ZM77.2449-55.4449L37.7892-77.382L73.406-97.4516C75.9931-98.9617 78.5564-98.9855 81.1196-97.4516L116.724-77.382L77.2449-55.4449Z"/>
  </g>
  <g id="Thin-L" transform="matrix(1 0 0 1 778.515 1556)">
   <path d="M22.3622-58.381L22.3633-32.9587C22.3633-29.0854 23.0015-26.2255 24.278-24.3803C25.5544-22.5339 27.3977-20.905 29.8091-19.4935L71.6629 4.72208C74.6055 6.42234 77.5482 6.42234 80.4908 4.72208L122.292-19.4935C124.738-20.905 126.59-22.5339 127.849-24.3803C129.108-26.2255 129.737-29.0854 129.737-32.9587L129.736-58.3523L178.514-29.1717C180.493-28.027 181.169-25.4927 180.025-23.5129C179.659-22.8814 179.134-22.3579 178.501-21.9956L76.8007 36.3852C75.5255 37.118 73.957 37.118 72.6805 36.3852L-28.9693-21.9657C-30.9529-23.1045-31.6371-25.6354-30.4998-27.6198C-30.1318-28.2605-29.5994-28.792-28.9566-29.1567L22.3622-58.381ZM33.3276-24.2262L72.7971-2.41903C74.9097-1.29906 76.8871-1.24321 79.1036-2.41903L118.573-24.2262C121.914-26.1174 123.12-28.1762 123.12-31.9815L123.12-74.8906C123.12-77.1407 121.867-78.6736 119.971-79.7829L80.9709-101.66C77.7787-103.491 74.1281-103.491 70.9361-101.66L31.9362-79.7829C30.034-78.6736 28.7867-77.1407 28.7867-74.8906L28.7867-31.9815C28.7867-28.1762 29.9376-26.1174 33.3276-24.2262ZM35.7933-26.2623C32.4385-28.1516 31.9463-29.4391 31.9463-32.2301L31.9463-74.0434L74.3823-50.6608L74.3823-5.17357L35.7933-26.2623ZM116.114-26.2623L77.4694-5.17357L77.4694-50.6608L119.961-74.0434L119.961-32.2301C119.961-29.4391 119.462-28.1516 116.114-26.2623ZM75.9228-53.2935L32.8819-76.9542L72.9948-99.3805C74.9084-100.52 76.9985-100.527 78.9058-99.3805L118.97-76.9542L75.9228-53.2935Z"/>
  </g>
  <g id="Ultralight-L" transform="matrix(1 0 0 1 482.204 1556)">
   <path d="M21.1721-58.0355L21.1733-32.3549C21.1733-28.4422 21.8173-25.5533 23.1053-23.6893C24.3933-21.8242 26.2534-20.1787 28.6867-18.7529L70.9204 5.70869C73.8898 7.42623 76.8591 7.42623 79.8285 5.70869L122.009-18.7529C124.477-20.1787 126.346-21.8242 127.617-23.6893C128.887-25.5533 129.522-28.4422 129.522-32.3549L129.521-58.0064L178.741-28.5294C180.738-27.3731 181.421-24.8131 180.266-22.8131C179.897-22.1752 179.367-21.6464 178.729-21.2804L76.1049 37.6935C74.818 38.4337 73.2353 38.4337 71.9473 37.6935L-30.6253-21.2502C-32.6269-22.4006-33.3173-24.9572-32.1697-26.9617C-31.7984-27.609-31.2612-28.1459-30.6125-28.5143L21.1721-58.0355ZM31.8664-23.6666L72.2471-1.47132C74.2632-0.42318 76.1603-0.357301 78.309-1.47132L118.69-23.6666C121.861-25.4628 122.848-27.4565 122.848-30.6815L122.848-75.1905C122.848-76.9248 121.704-78.1567 120.217-79.0304L79.6307-101.733C76.9285-103.286 73.6249-103.286 70.9228-101.733L30.3365-79.0304C28.8521-78.1567 27.7049-76.9248 27.7049-75.1905L27.7049-30.6815C27.7049-27.4565 28.6271-25.4628 31.8664-23.6666ZM33.9952-24.8653C30.4733-26.8411 30.0649-28.0869 30.0649-30.9343L30.0649-74.4743L74.1374-50.3499L74.1374-3.08268L33.9952-24.8653ZM116.558-24.8653L76.351-3.08268L76.351-50.3499L120.488-74.4743L120.488-30.9343C120.488-28.0869 120.083-26.8411 116.558-24.8653ZM75.2456-52.1915L30.3684-76.7351L72.7842-100.368C74.3528-101.319 76.2005-101.316 77.7719-100.368L120.12-76.7351L75.2456-52.1915Z"/>
  </g>
  <g id="Black-M" transform="matrix(1 0 0 1 2869.28 1126)">
   <path d="M22.9899-55.511L22.9907-37.1203C22.9907-34.3183 23.4636-32.2494 24.4093-30.9146C25.355-29.5789 26.7207-28.4005 28.5074-27.3794L58.7845-10.5959C60.9647-9.36591 65.3432-9.36591 67.5235-10.5959L97.0286-27.3794C98.8408-28.4005 100.213-29.5789 101.146-30.9146C102.079-32.2494 102.545-34.3183 102.545-37.1203L102.544-55.4902L138.684-34.3807C140.15-33.5526 140.651-31.7193 139.804-30.2871C139.533-29.8302 139.143-29.4516 138.675-29.1894L63.3239 13.0438C62.379 13.574 61.2169 13.574 60.2712 13.0438L-15.0421-29.1678C-16.5118-29.9917-17.0187-31.8225-16.1761-33.258C-15.9034-33.7216-15.509-34.106-15.0327-34.3699L22.9899-55.511ZM35.1167-30.1672L57.325-18.5056C61.0767-16.5411 64.5272-16.5413 68.2746-18.5056L90.483-30.1672C94.0558-32.0471 95.47-34.2849 95.47-38.4105L95.47-65.6397C95.47-69.3172 94.059-71.7905 90.5955-73.6017L69.5703-84.7063C65.3835-86.9389 60.22-86.9389 56.0332-84.7063L35.008-73.6017C31.5406-71.7905 30.1335-69.3172 30.1335-65.6397L30.1335-38.4105C30.1335-34.2849 31.5479-32.0471 35.1167-30.1672ZM40.9869-37.9337C39.7244-38.6325 39.2311-39.4131 39.2311-40.6837L39.2311-59.6188L58.0267-49.7114L58.0267-28.7302L40.9869-37.9337ZM84.6167-37.9337L67.5771-28.7302L67.5771-49.7114L86.3724-59.6188L86.3724-40.6837C86.3724-39.4131 85.8753-38.6325 84.6167-37.9337ZM62.7999-58.0365L44.471-67.7288L60.2493-76.0338C61.9363-76.8973 63.6672-76.9011 65.3503-76.0338L81.1328-67.7288L62.7999-58.0365Z"/>
  </g>
  <g id="Heavy-M" transform="matrix(1 0 0 1 2573.13 1126)">
   <path d="M22.6352-55.2428L22.6361-36.7572C22.6361-33.9408 23.1092-31.8613 24.0556-30.5196C25.0019-29.177 26.3685-27.9925 28.1563-26.9661L58.6269-9.91907C60.8086-8.68274 64.6698-8.68274 66.8515-9.91907L96.723-26.9661C98.5364-27.9925 99.9099-29.177 100.843-30.5196C101.777-31.8613 102.243-33.9408 102.243-36.7572L102.242-55.2219L138.406-34.0035C139.873-33.1712 140.375-31.3284 139.526-29.8888C139.255-29.4296 138.866-29.049 138.397-28.7855L62.996 13.6654C62.0505 14.1983 60.8876 14.1983 59.9413 13.6654L-15.422-28.7638C-16.8926-29.5919-17.3999-31.4322-16.5567-32.8751C-16.2839-33.341-15.8892-33.7275-15.4126-33.9927L22.6352-55.2428ZM34.1289-29.812L57.5604-17.2356C60.8926-15.4707 63.9567-15.469 67.2809-17.2356L90.7124-29.812C94.193-31.6725 95.6745-33.8122 95.6745-38.1389L95.6745-65.4669C95.6745-69.1138 94.2774-71.5321 90.947-73.3131L69.0626-85.1157C64.8758-87.3855 59.977-87.3855 55.7902-85.1157L33.9057-73.3131C30.5639-71.5321 29.1783-69.1138 29.1783-65.4669L29.1783-38.1389C29.1783-33.8122 30.658-31.6725 34.1289-29.812ZM39.3426-36.8091C37.9025-37.6169 37.3666-38.4832 37.3666-39.9177L37.3666-60.604L58.1346-49.3718L58.1346-26.4945L39.3426-36.8091ZM85.5102-36.8091L66.7165-26.4945L66.7165-49.3718L87.4862-60.604L87.4862-39.9177C87.4862-38.4832 86.9387-37.6169 85.5102-36.8091ZM62.4198-56.8664L42.0626-67.8687L59.5506-77.3179C61.4741-78.3424 63.3787-78.3539 65.2907-77.3179L82.7885-67.8687L62.4198-56.8664Z"/>
  </g>
  <g id="Bold-M" transform="matrix(1 0 0 1 2277.04 1126)">
   <path d="M22.2385-54.9428L22.2393-36.3512C22.2393-33.5185 22.7128-31.4271 23.6599-30.0777C24.6069-28.7274 25.9746-27.5361 27.7637-26.5039L58.4507-9.16195C60.634-7.91853 63.9165-7.91853 66.0998-9.16195L96.3812-26.5039C98.1959-27.5361 99.5704-28.7274 100.505-30.0777C101.439-31.4271 101.906-33.5185 101.906-36.3512L101.905-54.9217L138.095-33.5816C139.564-32.7446 140.065-30.8912 139.216-29.4433C138.945-28.9815 138.555-28.5987 138.086-28.3337L62.6292 14.3608C61.683 14.8967 60.5192 14.8967 59.5722 14.3608L-15.8469-28.3118C-17.3187-29.1447-17.8263-30.9955-16.9825-32.4467C-16.7095-32.9153-16.3145-33.304-15.8375-33.5707L22.2385-54.9428ZM33.0238-29.4146L57.8237-15.815C60.6867-14.2733 63.3184-14.2693 66.1692-15.815L90.9692-29.4146C94.3464-31.2534 95.9034-33.2834 95.9034-37.8352L95.9034-65.2736C95.9034-68.8862 94.5216-71.243 91.3403-72.9902L68.4947-85.5737C64.3078-87.8851 59.7052-87.8851 55.5183-85.5737L32.6726-72.9902C29.4713-71.243 28.1096-68.8862 28.1096-65.2736L28.1096-37.8352C28.1096-33.2834 29.6626-31.2534 33.0238-29.4146ZM37.5033-35.551C35.8646-36.4809 35.2808-37.4429 35.2808-39.0607L35.2808-61.706L58.2552-48.9919L58.2552-23.9935L37.5033-35.551ZM86.5098-35.551L65.7538-23.9935L65.7538-48.9919L88.7322-61.706L88.7322-39.0607C88.7322-37.4429 88.1283-36.4809 86.5098-35.551ZM61.9945-55.5575L39.3684-68.0253L58.769-78.7542C60.9571-79.9591 63.0559-79.9791 65.2239-78.7542L84.6407-68.0253L61.9945-55.5575Z"/>
  </g>
  <g id="Semibold-M" transform="matrix(1 0 0 1 1980.76 1126)">
   <path d="M21.9649-54.7359L21.9658-36.0712C21.9658-33.2274 22.4396-31.1278 23.3871-29.773C24.3346-28.4175 25.703-27.2215 27.493-26.1852L58.3293-8.63999C60.5137-7.39168 63.3972-7.39168 65.5816-8.63999L96.1456-26.1852C97.9612-27.2215 99.3364-28.4175 100.271-29.773C101.206-31.1278 101.673-33.2274 101.673-36.0712L101.672-54.7148L137.881-33.2908C139.35-32.4504 139.852-30.5898 139.003-29.1362C138.731-28.6725 138.341-28.2883 137.871-28.0222L62.3763 14.8402C61.4296 15.3782 60.2653 15.3782 59.3177 14.8402L-16.1399-28.0002C-17.6124-28.8364-18.1203-30.6945-17.2761-32.1514C-17.0029-32.6219-16.6077-33.0121-16.1305-33.2798L21.9649-54.7359ZM32.2619-29.1406L58.0052-14.8356C60.5448-13.4478 62.8784-13.4423 65.4028-14.8356L91.1461-29.1406C94.4522-30.9645 96.0611-32.9189 96.0611-37.6258L96.0611-65.1403C96.0611-68.7293 94.69-71.0437 91.6115-72.7676L68.1032-85.8894C63.9162-88.2295 59.5178-88.2295 55.3309-85.8894L31.8226-72.7676C28.718-71.0437 27.3729-68.7293 27.3729-65.1403L27.3729-37.6258C27.3729-32.9189 28.9764-30.9645 32.2619-29.1406ZM36.2352-34.6837C34.4596-35.6977 33.8429-36.7258 33.8429-38.47L33.8429-62.4657L58.3384-48.73L58.3384-22.2693L36.2352-34.6837ZM87.1988-34.6837L65.0902-22.2693L65.0902-48.73L89.5911-62.4657L89.5911-38.47C89.5911-36.7258 88.9484-35.6977 87.1988-34.6837ZM61.7013-54.6551L37.5111-68.1332L58.2302-79.7445C60.6006-81.0736 62.8335-81.0995 65.1779-79.7445L85.9175-68.1332L61.7013-54.6551Z"/>
  </g>
  <g id="Medium-M" transform="matrix(1 0 0 1 1684.37 1126)">
   <path d="M21.7576-54.5791L21.7584-35.8589C21.7584-33.0067 22.2323-30.9008 23.1802-29.5421C24.1281-28.1825 25.497-26.983 27.2877-25.9436L58.2372-8.24422C60.4224-6.9922 63.0034-6.9922 65.1886-8.24422L95.9669-25.9436C97.7832-26.983 99.159-28.1825 100.094-29.5421C101.029-30.9008 101.496-33.0067 101.496-35.8589L101.495-54.5579L137.718-33.0703C139.188-32.2274 139.69-30.3612 138.84-28.9034C138.569-28.4383 138.179-28.0529 137.709-27.786L62.1845 15.2036C61.2375 15.7432 60.0727 15.7432 59.1248 15.2036L-16.362-27.764C-17.8351-28.6026-18.3432-30.4663-17.4986-31.9275C-17.2254-32.3993-16.83-32.7907-16.3526-33.0592L21.7576-54.5791ZM31.6843-28.9329L58.1428-14.093C60.4371-12.8219 62.5448-12.8152 64.8218-14.093L91.2803-28.9329C94.5324-30.7454 96.1808-32.6425 96.1808-37.467L96.1808-65.0393C96.1808-68.6104 94.8177-70.8926 91.817-72.5988L67.8063-86.1289C63.6193-88.4906 59.3757-88.4906 55.1888-86.1289L31.178-72.5988C28.1469-70.8926 26.8143-68.6104 26.8143-65.0393L26.8143-37.467C26.8143-32.6425 28.4561-30.7454 31.6843-28.9329ZM35.2737-34.0261C33.3943-35.1038 32.7526-36.182 32.7526-38.022L32.7526-63.0418L58.4015-48.5314L58.4015-20.9619L35.2737-34.0261ZM87.7213-34.0261L64.5869-20.9619L64.5869-48.5314L90.2424-63.0418L90.2424-38.022C90.2424-36.182 89.5702-35.1038 87.7213-34.0261ZM61.479-53.9708L36.1028-68.215L57.8216-80.4953C60.3303-81.9186 62.6648-81.949 65.143-80.4953L86.8857-68.215L61.479-53.9708Z"/>
  </g>
  <g id="Regular-M" transform="matrix(1 0 0 1 1388.09 1126)">
   <path d="M21.487-54.3745L21.4879-35.582C21.4879-32.7188 21.9621-30.6048 22.9104-29.2408C23.8588-27.8759 25.2284-26.6718 27.02-25.6284L58.117-7.728C60.3034-6.47114 62.4898-6.47114 64.6761-7.728L95.7338-25.6284C97.5511-26.6718 98.9275-27.8759 99.8631-29.2408C100.799-30.6048 101.266-32.7188 101.266-35.582L101.265-54.3532L137.506-32.7826C138.977-31.9365 139.479-30.0631 138.629-28.5996C138.357-28.1328 137.967-27.7458 137.497-27.478L61.9344 15.6777C60.9869 16.2194 59.8215 16.2194 58.8732 15.6777L-16.6518-27.4559C-18.1256-28.2977-18.634-30.1685-17.789-31.6354C-17.5156-32.1091-17.12-32.502-16.6424-32.7715L21.487-54.3745ZM30.9308-28.6619L58.3223-13.1244C60.2967-12.0055 62.1096-11.9973 64.0638-13.1244L91.4553-28.6619C94.637-30.4597 96.3368-32.2819 96.3368-37.2599L96.3368-64.9075C96.3368-68.4552 94.9842-70.6955 92.0852-72.3786L67.4191-86.4411C63.2321-88.8312 59.1904-88.8312 55.0034-86.4411L30.3373-72.3786C27.4019-70.6955 26.0857-68.4552 26.0857-64.9075L26.0857-37.2599C26.0857-32.2819 27.7774-30.4597 30.9308-28.6619ZM34.0196-33.1683C32.0048-34.3293 31.3305-35.4728 31.3305-37.4377L31.3305-63.7932L58.4838-48.2723L58.4838-19.2567L34.0196-33.1683ZM88.4028-33.1683L63.9306-19.2567L63.9306-48.2723L91.0919-63.7932L91.0919-37.4377C91.0919-35.4728 90.3813-34.3293 88.4028-33.1683ZM61.189-53.0784L34.2658-68.3218L57.2887-81.4747C59.9778-83.0209 62.4447-83.0571 65.0975-81.4747L88.1486-68.3218L61.189-53.0784Z"/>
  </g>
  <g id="Light-M" transform="matrix(1 0 0 1 1091.91 1126)">
   <path d="M19.912-53.9172L19.9129-34.7829C19.9129-31.8676 20.3948-29.7151 21.3585-28.3263C22.3222-26.9366 23.7139-25.7106 25.5345-24.6482L57.1344-6.42223C59.3561-5.14251 61.5778-5.14251 63.7995-6.42223L95.3595-24.6482C97.2061-25.7106 98.6048-26.9366 99.5555-28.3263C100.506-29.7151 100.981-31.8676 100.981-34.7829L100.98-53.8955L137.807-31.9325C139.302-31.071 139.812-29.1636 138.948-27.6735C138.672-27.1981 138.275-26.8042 137.798-26.5314L61.0135 17.4092C60.0506 17.9608 58.8664 17.9608 57.9027 17.4092L-18.8435-26.5089C-20.3412-27.3661-20.8577-29.2709-19.9991-30.7645C-19.7213-31.2468-19.3193-31.6468-18.834-31.9213L19.912-53.9172ZM28.9969-27.9213L57.5945-11.8702C59.4411-10.8463 61.1477-10.8248 63.0122-11.8702L91.6098-27.9213C94.567-29.5932 95.9771-31.3295 95.9771-35.5393L95.9771-65.3045C95.9771-68.1694 94.7689-70.0113 92.411-71.3827L65.6453-86.5375C62.1068-88.56 58.5243-88.56 54.9859-86.5375L28.2201-71.3827C25.8378-70.0113 24.654-68.1694 24.654-65.3045L24.654-35.5393C24.654-31.3295 26.043-29.5932 28.9969-27.9213ZM31.6398-31.3194C29.4039-32.5949 28.8404-33.6831 28.8404-35.7228L28.8404-64.3635L58.1596-47.8608L58.1596-16.4895L31.6398-31.3194ZM88.9913-31.3194L62.4503-16.4895L62.4503-47.8608L91.7907-64.3635L91.7907-35.7228C91.7907-33.6831 91.2028-32.5949 88.9913-31.3194ZM60.2928-51.62L30.9393-68.0318L57.01-82.7822C59.2425-84.0775 61.3887-84.1019 63.5967-82.7822L89.6707-68.0318L60.2928-51.62Z"/>
  </g>
  <g id="Thin-M" transform="matrix(1 0 0 1 795.895 1126)">
   <path d="M17.829-53.3123L17.8299-33.726C17.8299-30.7418 18.3219-28.5385 19.3059-27.1168C20.2898-25.6943 21.7109-24.4393 23.5698-23.3518L55.8347-4.69524C58.1032-3.38529 60.3717-3.38529 62.6402-4.69524L94.8643-23.3518C96.7499-24.4393 98.178-25.6943 99.1487-27.1168C100.119-28.5385 100.604-30.7418 100.604-33.726L100.603-53.2902L138.206-30.8083C139.731-29.9264 140.253-27.9739 139.371-26.4486C139.089-25.962 138.684-25.5587 138.196-25.2795L59.7955 19.6993C58.8124 20.2638 57.6032 20.2638 56.6193 19.6993L-21.7423-25.2565C-23.2714-26.1339-23.7989-28.0838-22.9221-29.6127C-22.6385-30.1063-22.228-30.5158-21.7325-30.7968L17.829-53.3123ZM26.4392-26.9418L56.6319-10.2113C58.3095-9.31316 59.8755-9.27414 61.6214-10.2113L91.8141-26.9418C94.4745-28.4473 95.5015-30.0698 95.5015-33.2638L95.5015-65.8295C95.5015-67.7914 94.4841-69.1065 92.842-70.0656L63.2993-86.665C60.6186-88.2013 57.6434-88.2013 54.9627-86.665L25.4199-70.0656C23.7692-69.1065 22.7604-67.7914 22.7604-65.8295L22.7604-33.2638C22.7604-30.0698 23.749-28.4473 26.4392-26.9418ZM28.4923-28.874C25.9639-30.301 25.5471-31.3162 25.5471-33.4546L25.5471-65.1178L57.7309-47.3165L57.7309-12.8295L28.4923-28.874ZM89.7697-28.874L60.4926-12.8295L60.4926-47.3165L92.7148-65.1178L92.7148-33.4546C92.7148-31.3162 92.2894-30.301 89.7697-28.874ZM59.1074-49.6912L26.5396-67.6482L56.6414-84.5115C58.27-85.4749 59.9919-85.4836 61.6119-84.5115L91.6838-67.6482L59.1074-49.6912Z"/>
  </g>
  <g id="Ultralight-M" transform="matrix(1 0 0 1 499.543 1126)">
   <path d="M16.7621-53.0025L16.763-33.1846C16.763-30.1652 17.2601-27.9358 18.2545-26.4974C19.2489-25.058 20.6849-23.7882 22.5635-22.6879L55.1691-3.81069C57.4615-2.48525 59.7539-2.48525 62.0464-3.81069L94.6107-22.6879C96.5162-23.7882 97.9593-25.058 98.9403-26.4974C99.9212-27.9358 100.411-30.1652 100.411-33.1846L100.41-52.9801L138.41-30.2324C139.951-29.3401 140.478-27.3645 139.587-25.8212C139.302-25.3289 138.893-24.9208 138.4-24.6383L59.1716 20.8722C58.1782 21.4435 56.9562 21.4435 55.9619 20.8722L-23.227-24.615C-24.7723-25.5028-25.3053-27.4757-24.4193-29.0227C-24.1327-29.5222-23.7179-29.9365-23.2171-30.2208L16.7621-53.0025ZM25.1292-26.4401L56.1388-9.36161C57.7299-8.52789 59.2239-8.47988 60.909-9.36161L91.9188-26.4401C94.4271-27.8603 95.2579-29.4246 95.2579-32.0983L95.2579-66.0985C95.2579-67.5977 94.3383-68.643 93.0627-69.391L62.0977-86.7304C59.8563-88.0176 57.1921-88.0176 54.9509-86.7304L23.9857-69.391C22.7096-68.643 21.7906-67.5977 21.7906-66.0985L21.7906-32.0983C21.7906-29.4246 22.5741-27.8603 25.1292-26.4401ZM26.8801-27.6215C24.202-29.1261 23.8603-30.1039 23.8603-32.2929L23.8603-65.5041L57.5113-47.0377L57.5113-10.955L26.8801-27.6215ZM90.1683-27.6215L59.4898-10.955L59.4898-47.0377L93.1881-65.5041L93.1881-32.2929C93.1881-30.1039 92.8459-29.1261 90.1683-27.6215ZM58.5002-48.7032L24.2862-67.4517L56.4525-85.3972C57.7719-86.1907 59.2765-86.1913 60.5953-85.3972L92.7149-67.4517L58.5002-48.7032Z"/>
  </g>
  <g id="Black-S" transform="matrix(1 0 0 1 2883.01 696)">
   <path d="M18.0329-51.1787L18.0335-36.7747C18.0335-34.5801 18.4045-32.9598 19.1463-31.9143C19.8882-30.8682 20.9595-29.9452 22.361-29.1455L46.0598-16.0532C47.7701-15.0898 51.3603-15.0898 53.0706-16.0532L76.112-29.1455C77.5335-29.9452 78.6102-30.8682 79.3421-31.9143C80.0739-32.9598 80.4395-34.5801 80.4395-36.7747L80.4388-51.1624L108.788-34.629C109.939-33.9805 110.331-32.5446 109.666-31.4228C109.454-31.065 109.149-30.7684 108.781-30.5631L49.6726 2.51481C48.9314 2.93 48.0198 2.93 47.2779 2.51481L-11.801-30.5462C-12.9539-31.1915-13.3515-32.6254-12.6906-33.7497C-12.4767-34.1128-12.1673-34.4139-11.7937-34.6205L18.0329-51.1787ZM27.7076-31.3267L44.8119-22.4346C47.8717-20.8402 50.6867-20.8402 53.7465-22.4346L70.8509-31.3267C73.6659-32.7985 74.7368-34.5769 74.7368-37.7045L74.7368-59.1374C74.7368-61.989 73.6353-63.9207 70.9121-65.3312L54.5727-73.886C51.3293-75.6031 47.2291-75.6031 43.9858-73.886L27.6464-65.3312C24.9232-63.9207 23.8216-61.989 23.8216-59.1374L23.8216-37.7045C23.8216-34.5769 24.8926-32.7985 27.7076-31.3267ZM32.4809-37.5818C31.5323-38.1031 31.1652-38.6857 31.1652-39.6362L31.1652-54.0782L45.4239-46.6579L45.4239-30.6521L32.4809-37.5818ZM66.0776-37.5818L53.1346-30.6521L53.1346-46.6579L67.3933-54.0782L67.3933-39.6362C67.3933-38.6857 67.0261-38.1031 66.0776-37.5818ZM49.2792-53.3729L35.3877-60.6399L47.4127-66.895C48.6367-67.5082 49.9218-67.5082 51.1457-66.895L63.1708-60.6399L49.2792-53.3729Z"/>
  </g>
  <g id="Heavy-S" transform="matrix(1 0 0 1 2586.71 696)">
   <path d="M17.9308-51.0078L17.9315-36.5664C17.9315-34.3661 18.3017-32.7415 19.0421-31.6933C19.7826-30.6445 20.8518-29.7191 22.2507-28.9173L46.0507-15.6412C47.7577-14.6753 50.9009-14.6753 52.6079-15.6412L75.8985-28.9173C77.3173-29.7191 78.3919-30.6445 79.1224-31.6933C79.8528-32.7415 80.2177-34.3661 80.2177-36.5664L80.217-50.9914L108.512-34.4151C109.66-33.7649 110.052-32.3252 109.389-31.2006C109.176-30.8418 108.872-30.5445 108.505-30.3386L49.5098 2.82515C48.7701 3.24142 47.8602 3.24142 47.1198 2.82515L-11.8458-30.3217C-12.9965-30.9686-13.3934-32.4063-12.7337-33.5335C-12.5202-33.8975-12.2114-34.1994-11.8385-34.4066L17.9308-51.0078ZM27.1099-31.1175L45.1062-21.5088C47.8236-20.0728 50.3217-20.0728 53.031-21.5088L71.0274-31.1175C73.7921-32.5888 74.9577-34.2944 74.9577-37.6921L74.9577-58.9389C74.9577-61.8515 73.8495-63.7872 71.1711-65.2116L54.3652-74.2238C51.0388-76.0197 47.1065-76.0197 43.7802-74.2238L26.9742-65.2116C24.2877-63.7872 23.1876-61.8515 23.1876-58.9389L23.1876-37.6921C23.1876-34.2944 24.3532-32.5888 27.1099-31.1175ZM31.3788-36.8562C30.3066-37.4561 29.8888-38.1191 29.8888-39.2002L29.8888-54.8478L45.5576-46.42L45.5576-29.0936L31.3788-36.8562ZM66.7666-36.8562L52.5878-29.0936L52.5878-46.42L68.2566-54.8478L68.2566-39.2002C68.2566-38.1191 67.8306-37.4561 66.7666-36.8562ZM49.0686-52.5585L33.753-60.7966L46.8508-67.8261C48.3353-68.6092 49.81-68.6173 51.2864-67.8261L64.3923-60.7966L49.0686-52.5585Z"/>
  </g>
  <g id="Bold-S" transform="matrix(1 0 0 1 2290.46 696)">
   <path d="M17.8167-50.8166L17.8173-36.3333C17.8173-34.1267 18.1868-32.4974 18.9256-31.4462C19.6644-30.3943 20.7314-29.4663 22.1272-28.6621L46.0405-15.1804C47.7438-14.2117 50.3871-14.2117 52.0904-15.1804L75.6597-28.6621C77.0755-29.4663 78.1478-30.3943 78.8766-31.4462C79.6055-32.4974 79.9696-34.1267 79.9696-36.3333L79.9689-50.8002L108.203-34.1758C109.349-33.5237 109.74-32.0799 109.078-30.952C108.866-30.5922 108.562-30.294 108.196-30.0876L49.3278 3.17226C48.5896 3.58973 47.6817 3.58973 46.9429 3.17226L-11.8959-30.0705C-13.0441-30.7194-13.4402-32.1612-12.7819-33.2917C-12.5689-33.6568-12.2607-33.9596-11.8886-34.1673L17.8167-50.8166ZM26.4413-30.8835L45.4354-20.4733C47.7698-19.2146 49.9134-19.2146 52.2307-20.4733L71.2249-30.8835C73.9333-32.3543 75.2048-33.9783 75.2048-37.6783L75.2048-58.7168C75.2048-61.6978 74.0892-63.6378 71.4608-65.0778L54.1331-74.6017C50.714-76.4856 46.9692-76.4856 43.5502-74.6017L26.2224-65.0778C23.5769-63.6378 22.4784-61.6978 22.4784-58.7168L22.4784-37.6783C22.4784-33.9783 23.7499-32.3543 26.4413-30.8835ZM30.146-36.0447C28.9357-36.7326 28.4611-37.4853 28.4611-38.7125L28.4611-55.7087L45.7071-46.154L45.7071-27.3505L30.146-36.0447ZM67.5372-36.0447L51.9761-27.3505L51.9761-46.154L69.2221-55.7087L69.2221-38.7125C69.2221-37.4853 68.7304-36.7326 67.5372-36.0447ZM48.8331-51.6476L31.9247-60.972L46.2223-68.8675C47.9983-69.8406 49.685-69.8577 51.4439-68.8675L65.7586-60.972L48.8331-51.6476Z"/>
  </g>
  <g id="Semibold-S" transform="matrix(1 0 0 1 1994.06 696)">
   <path d="M17.738-50.6847L17.7386-36.1727C17.7386-33.9616 18.1075-32.3291 18.8453-31.2758C19.583-30.2218 20.6484-29.2919 22.0421-28.4862L46.0334-14.8627C47.7342-13.8921 50.0328-13.8921 51.7336-14.8627L75.4951-28.4862C76.9087-29.2919 77.9795-30.2218 78.7072-31.2758C79.435-32.3291 79.7986-33.9616 79.7986-36.1727L79.7979-50.6683L107.99-34.0109C109.134-33.3575 109.525-31.9108 108.864-30.7806C108.652-30.4201 108.348-30.1213 107.983-29.9145L49.2023 3.41157C48.4652 3.82987 47.5586 3.82987 46.8209 3.41157L-11.9305-29.8974C-13.077-30.5475-13.4724-31.9922-12.8151-33.125C-12.6024-33.4908-12.2947-33.7942-11.9232-34.0023L17.738-50.6847ZM25.9804-30.7222L45.6623-19.7593C47.7327-18.6229 49.6319-18.6229 51.679-19.7593L71.361-30.7222C74.0306-32.1926 75.3752-33.7605 75.3752-37.6688L75.3752-58.5638C75.3752-61.5918 74.2544-63.5348 71.6606-64.9856L53.9731-74.8622C50.49-76.8069 46.8746-76.8069 43.3916-74.8622L25.7041-64.9856C23.0869-63.5348 21.9895-61.5918 21.9895-58.5638L21.9895-37.6688C21.9895-33.7605 23.334-32.1926 25.9804-30.7222ZM29.2962-35.4852C27.9905-36.2337 27.4768-37.0484 27.4768-38.3763L27.4768-56.3022L45.8102-45.9705L45.8102-26.1487L29.2962-35.4852ZM68.0685-35.4852L51.5544-26.1487L51.5544-45.9705L69.8879-56.3022L69.8879-38.3763C69.8879-37.0484 69.3508-36.2337 68.0685-35.4852ZM48.6707-51.0197L30.6641-61.0928L45.789-69.5854C47.7659-70.6896 49.5988-70.7129 51.5524-69.5854L66.7005-61.0928L48.6707-51.0197Z"/>
  </g>
  <g id="Medium-S" transform="matrix(1 0 0 1 1697.59 696)">
   <path d="M17.6783-50.5848L17.679-36.0509C17.679-33.8365 18.0474-32.2015 18.7843-31.1466C19.5212-30.091 20.5855-29.1598 21.9776-28.3528L46.0281-14.6218C47.727-13.6498 49.7642-13.6498 51.4631-14.6218L75.3702-28.3528C76.7823-29.1598 77.8518-30.091 78.5788-31.1466C79.3057-32.2015 79.6689-33.8365 79.6689-36.0509L79.6682-50.5683L107.829-33.8858C108.971-33.2314 109.362-31.7826 108.701-30.6507C108.49-30.2896 108.187-29.9904 107.821-29.7832L49.1071 3.59302C48.3709 4.01196 47.4653 4.01196 46.7284 3.59302L-11.9567-29.7661C-13.1019-30.4172-13.4969-31.8641-12.8403-32.9986C-12.6279-33.3649-12.3205-33.6688-11.9494-33.8772L17.6783-50.5848ZM25.6309-30.5999L45.8344-19.218C47.7046-18.1743 49.4185-18.1743 51.2606-19.218L71.4642-30.5999C74.1044-32.07 75.5044-33.5953 75.5044-37.6616L75.5044-58.4477C75.5044-61.5114 74.3797-63.4567 71.8121-64.9157L53.8517-75.0598C50.3202-77.0504 46.8029-77.0504 43.2714-75.0598L25.311-64.9157C22.7154-63.4567 21.6188-61.5114 21.6188-58.4477L21.6188-37.6616C21.6188-33.5953 23.0187-32.07 25.6309-30.5999ZM28.6517-35.061C27.2738-35.8555 26.7305-36.7171 26.7305-38.1214L26.7305-56.7523L45.8884-45.8314L45.8884-25.2375L28.6517-35.061ZM68.4714-35.061L51.2347-25.2375L51.2347-45.8314L70.3926-56.7523L70.3926-38.1214C70.3926-36.7171 69.8212-35.8555 68.4714-35.061ZM48.5475-50.5435L29.7083-61.1845L45.4604-70.1299C47.5897-71.3333 49.5335-71.3613 51.6347-70.1299L67.4148-61.1845L48.5475-50.5435Z"/>
  </g>
  <g id="Regular-S" transform="matrix(1 0 0 1 1401.19 696)">
   <path d="M17.6005-50.4544L17.6012-35.892C17.6012-33.6732 17.9691-32.035 18.7049-30.9781C19.4407-29.9204 20.5033-28.9873 21.8934-28.1788L46.0211-14.3076C47.7175-13.3337 49.4139-13.3337 51.1102-14.3076L75.2074-28.1788C76.6174-28.9873 77.6853-29.9204 78.4112-30.9781C79.1371-32.035 79.4997-33.6732 79.4997-35.892L79.499-50.4379L107.618-33.7227C108.759-33.067 109.149-31.6153 108.489-30.4812C108.278-30.1194 107.975-29.8196 107.611-29.612L48.983 3.82971C48.2478 4.24947 47.3436 4.24947 46.6078 3.82971L-11.9908-29.5949C-13.1343-30.2473-13.5288-31.697-12.8732-32.8337C-12.661-33.2008-12.3541-33.5052-11.9835-33.7141L17.6005-50.4544ZM25.175-30.4404L46.0589-18.5119C47.6679-17.5891 49.1401-17.5891 50.7149-18.5119L71.5988-30.4404C74.2007-31.9101 75.6728-33.3798 75.6728-37.6521L75.6728-58.2963C75.6728-61.4066 74.5431-63.3548 72.0096-64.8245L53.6935-75.3174C50.0987-77.3682 46.7093-77.3682 43.1146-75.3174L24.7984-64.8245C22.2307-63.3548 21.1352-61.4066 21.1352-58.2963L21.1352-37.6521C21.1352-33.3798 22.6073-31.9101 25.175-30.4404ZM27.8112-34.5077C26.3391-35.3621 25.757-36.285 25.757-37.7888L25.757-57.3392L45.9904-45.65L45.9904-24.0489L27.8112-34.5077ZM68.9968-34.5077L50.8177-24.0489L50.8177-45.65L71.051-57.3392L71.051-37.7888C71.051-36.285 70.4348-35.3621 68.9968-34.5077ZM48.3869-49.9224L28.4616-61.304L45.0318-70.84C47.3599-72.1729 49.4482-72.2071 51.742-70.84L68.3464-61.304L48.3869-49.9224Z"/>
  </g>
  <g id="Light-S" transform="matrix(1 0 0 1 1104.95 696)">
   <path d="M16.2072-50.0498L16.2079-35.185C16.2079-32.9202 16.5826-31.248 17.332-30.1691C18.0814-29.0895 19.1636-28.137 20.5793-27.3117L45.1519-13.1525C46.8795-12.1583 48.6071-12.1583 50.3348-13.1525L74.8762-27.3117C76.3122-28.137 77.3999-29.0895 78.1391-30.1691C78.8784-31.248 79.2477-32.9202 79.2477-35.185L79.247-50.033L107.884-32.9707C109.046-32.3014 109.443-30.8196 108.772-29.6619C108.557-29.2927 108.248-28.9866 107.877-28.7747L48.1683 5.36141C47.4196 5.78989 46.4987 5.78989 45.7493 5.36141L-13.9297-28.7572C-15.0943-29.4231-15.496-30.903-14.8283-32.0633C-14.6122-32.4379-14.2996-32.7487-13.9222-32.9619L16.2072-50.0498ZM23.4643-29.7852L45.415-17.4023C46.9111-16.5636 48.2892-16.5519 49.7847-17.4023L71.7355-29.7852C74.1388-31.1436 75.3547-32.5372 75.3547-36.1301L75.3547-58.6475C75.3547-61.1537 74.3526-62.7496 72.2979-63.9435L52.1243-75.4027C49.1033-77.1283 46.1201-77.1283 43.0991-75.4027L22.9255-63.9435C20.8471-62.7496 19.8687-61.1537 19.8687-58.6475L19.8687-36.1301C19.8687-32.5372 21.073-31.1436 23.4643-29.7852ZM25.7059-32.872C24.0382-33.8279 23.5543-34.7019 23.5543-36.2718L23.5543-57.8437L45.7036-45.286L45.7036-21.6009L25.7059-32.872ZM69.5174-32.872L49.5082-21.6009L49.5082-45.286L71.6691-57.8437L71.6691-36.2718C71.6691-34.7019 71.1615-33.8279 69.5174-32.872ZM47.5941-48.6323L25.5189-61.0475L44.7853-71.9966C46.7094-73.1076 48.514-73.1313 50.4145-71.9966L69.6929-61.0475L47.5941-48.6323Z"/>
  </g>
  <g id="Thin-S" transform="matrix(1 0 0 1 808.855 696)">
   <path d="M14.3645-49.5148L14.3652-34.2501C14.3652-31.9243 14.7489-30.2071 15.5162-29.0992C16.2835-27.9906 17.3917-27.0125 18.8413-26.1649L44.0022-11.6248C45.7712-10.6039 47.5402-10.6039 49.3092-11.6248L74.4383-26.1649C75.9086-27.0125 77.0223-27.9906 77.7793-29.0992C78.5362-30.2071 78.9144-31.9243 78.9144-34.2501L78.9137-49.4975L108.237-31.9761C109.426-31.2889 109.833-29.7671 109.145-28.5784C108.925-28.1992 108.609-27.8849 108.229-27.6673L47.0908 7.38722C46.3242 7.82722 45.3813 7.82722 44.614 7.38722L-16.4939-27.6493C-17.6864-28.3332-18.0977-29.8528-17.4141-31.0443C-17.1928-31.4291-16.8728-31.7482-16.4863-31.9672L14.3645-49.5148ZM21.2017-28.9187L44.5635-15.9349C45.91-15.2074 47.1638-15.1801 48.5543-15.9349L71.9162-28.9187C74.057-30.1299 74.9339-31.4229 74.9339-34.1171L74.9339-59.1119C74.9339-60.8193 74.1007-61.9491 72.6791-62.7784L50.049-75.5155C47.7867-76.811 45.3408-76.811 43.0786-75.5155L20.4485-62.7784C19.0171-61.9491 18.1936-60.8193 18.1936-59.1119L18.1936-34.1171C18.1936-31.4229 19.0437-30.1299 21.2017-28.9187ZM22.9216-30.7088C20.9952-31.7987 20.6409-32.608 20.6409-34.2653L20.6409-58.511L45.3243-44.8045L45.3243-18.3633L22.9216-30.7088ZM70.2059-30.7088L47.7763-18.3633L47.7763-44.8045L72.4866-58.511L72.4866-34.2653C72.4866-32.608 72.1226-31.7987 70.2059-30.7088ZM46.5455-46.926L21.6269-60.7082L44.4591-73.5263C45.8491-74.3438 47.2784-74.3536 48.6587-73.5263L71.4737-60.7082L46.5455-46.926Z"/>
  </g>
  <g id="Ultralight-S" transform="matrix(1 0 0 1 512.462 696)">
   <path d="M13.4207-49.2407L13.4214-33.7712C13.4214-31.4142 13.8097-29.674 14.5862-28.5512C15.3627-27.4277 16.4841-26.4365 17.9511-25.5775L43.4133-10.8423C45.2035-9.80768 46.9937-9.80768 48.7839-10.8423L74.2139-25.5775C75.7019-26.4365 76.8289-27.4277 77.5949-28.5512C78.361-29.674 78.7436-31.4142 78.7436-33.7712L78.7429-49.2232L108.417-31.4667C109.621-30.7702 110.033-29.2281 109.336-28.0234C109.114-27.6391 108.794-27.3206 108.41-27.1001L46.539 8.42483C45.7632 8.87074 44.8089 8.87074 44.0324 8.42483L-17.8074-27.0819C-19.0141-27.7749-19.4304-29.3149-18.7385-30.5224C-18.5146-30.9123-18.1907-31.2357-17.7997-31.4576L13.4207-49.2407ZM20.0428-28.4749L44.1273-15.1833C45.3973-14.5127 46.5873-14.4775 47.9242-15.1833L72.0088-28.4749C74.0151-29.6107 74.7184-30.8521 74.7184-33.0861L74.7184-59.3498C74.7184-60.648 73.9717-61.5391 72.8743-62.1816L48.986-75.5733C47.1124-76.6484 44.9417-76.6484 43.0681-75.5733L19.1797-62.1816C18.0798-61.5391 17.3357-60.648 17.3357-59.3498L17.3357-33.0861C17.3357-30.8521 18.0043-29.6107 20.0428-28.4749ZM21.4955-29.6008C19.4365-30.7593 19.1487-31.5356 19.1487-33.2376L19.1487-58.8527L45.13-44.5579L45.13-16.7051L21.4955-29.6008ZM70.5586-29.6008L46.8893-16.7051L46.8893-44.5579L72.9053-58.8527L72.9053-33.2376C72.9053-31.5356 72.6149-30.7593 70.5586-29.6008ZM46.0084-46.0521L19.6335-60.5344L44.2921-74.3099C45.4085-74.977 46.6456-74.9797 47.7594-74.3099L72.3858-60.5344L46.0084-46.0521Z"/>
  </g>
 </g>
</svg>
