<?xml version="1.0" encoding="UTF-8"?>
<!--Generator: Apple Native CoreSVG 175.5-->
<!DOCTYPE svg
PUBLIC "-//W3C//DTD SVG 1.1//EN"
       "http://www.w3.org/Graphics/SVG/1.1/DTD/svg11.dtd">
<svg version="1.1" xmlns="http://www.w3.org/2000/svg" xmlns:xlink="http://www.w3.org/1999/xlink" width="3300" height="2200">
 <!--glyph: "", point size: 100.0, font version: "18.0d12e2", template writer version: "101"-->
 <g id="Notes">
  <rect height="2200" id="artboard" style="fill:white;opacity:1" width="3300" x="0" y="0"/>
  <line style="fill:none;stroke:black;opacity:1;stroke-width:0.5;" x1="263" x2="3036" y1="292" y2="292"/>
  <text style="stroke:none;fill:black;font-family:sans-serif;font-size:13;font-weight:bold;" transform="matrix(1 0 0 1 263 322)">Weight/Scale Variations</text>
  <text style="stroke:none;fill:black;font-family:sans-serif;font-size:13;text-anchor:middle;" transform="matrix(1 0 0 1 559.711 322)">Ultralight</text>
  <text style="stroke:none;fill:black;font-family:sans-serif;font-size:13;text-anchor:middle;" transform="matrix(1 0 0 1 856.422 322)">Thin</text>
  <text style="stroke:none;fill:black;font-family:sans-serif;font-size:13;text-anchor:middle;" transform="matrix(1 0 0 1 1153.13 322)">Light</text>
  <text style="stroke:none;fill:black;font-family:sans-serif;font-size:13;text-anchor:middle;" transform="matrix(1 0 0 1 1449.84 322)">Regular</text>
  <text style="stroke:none;fill:black;font-family:sans-serif;font-size:13;text-anchor:middle;" transform="matrix(1 0 0 1 1746.56 322)">Medium</text>
  <text style="stroke:none;fill:black;font-family:sans-serif;font-size:13;text-anchor:middle;" transform="matrix(1 0 0 1 2043.27 322)">Semibold</text>
  <text style="stroke:none;fill:black;font-family:sans-serif;font-size:13;text-anchor:middle;" transform="matrix(1 0 0 1 2339.98 322)">Bold</text>
  <text style="stroke:none;fill:black;font-family:sans-serif;font-size:13;text-anchor:middle;" transform="matrix(1 0 0 1 2636.69 322)">Heavy</text>
  <text style="stroke:none;fill:black;font-family:sans-serif;font-size:13;text-anchor:middle;" transform="matrix(1 0 0 1 2933.4 322)">Black</text>
  <line style="fill:none;stroke:black;opacity:1;stroke-width:0.5;" x1="263" x2="3036" y1="1903" y2="1903"/>
  <g transform="matrix(1 0 0 1 263 1933)">
   <path d="M9.24805 0.830078C13.5547 0.830078 17.1387-2.74414 17.1387-7.05078C17.1387-11.3574 13.5449-14.9316 9.23828-14.9316C4.94141-14.9316 1.36719-11.3574 1.36719-7.05078C1.36719-2.74414 4.95117 0.830078 9.24805 0.830078ZM9.24805-0.654297C5.70312-0.654297 2.87109-3.49609 2.87109-7.05078C2.87109-10.6055 5.69336-13.4473 9.23828-13.4473C12.793-13.4473 15.6445-10.6055 15.6445-7.05078C15.6445-3.49609 12.8027-0.654297 9.24805-0.654297ZM5.6543-7.05078C5.6543-6.62109 5.95703-6.32812 6.40625-6.32812L8.50586-6.32812L8.50586-4.20898C8.50586-3.76953 8.79883-3.4668 9.22852-3.4668C9.67773-3.4668 9.9707-3.76953 9.9707-4.20898L9.9707-6.32812L12.0898-6.32812C12.5293-6.32812 12.832-6.62109 12.832-7.05078C12.832-7.49023 12.5293-7.79297 12.0898-7.79297L9.9707-7.79297L9.9707-9.90234C9.9707-10.3516 9.67773-10.6543 9.22852-10.6543C8.79883-10.6543 8.50586-10.3516 8.50586-9.90234L8.50586-7.79297L6.40625-7.79297C5.95703-7.79297 5.6543-7.49023 5.6543-7.05078Z"/>
  </g>
  <g transform="matrix(1 0 0 1 281.867 1933)">
   <path d="M11.709 2.91016C17.1582 2.91016 21.6699-1.61133 21.6699-7.05078C21.6699-12.5 17.1484-17.0117 11.6992-17.0117C6.25977-17.0117 1.74805-12.5 1.74805-7.05078C1.74805-1.61133 6.26953 2.91016 11.709 2.91016ZM11.709 1.25C7.09961 1.25 3.41797-2.44141 3.41797-7.05078C3.41797-11.6602 7.08984-15.3516 11.6992-15.3516C16.3086-15.3516 20.0098-11.6602 20.0098-7.05078C20.0098-2.44141 16.3184 1.25 11.709 1.25ZM7.17773-7.05078C7.17773-6.57227 7.50977-6.25 8.00781-6.25L10.8789-6.25L10.8789-3.36914C10.8789-2.88086 11.2109-2.53906 11.6895-2.53906C12.1777-2.53906 12.5195-2.87109 12.5195-3.36914L12.5195-6.25L15.4004-6.25C15.8887-6.25 16.2305-6.57227 16.2305-7.05078C16.2305-7.53906 15.8887-7.88086 15.4004-7.88086L12.5195-7.88086L12.5195-10.752C12.5195-11.25 12.1777-11.5918 11.6895-11.5918C11.2109-11.5918 10.8789-11.25 10.8789-10.752L10.8789-7.88086L8.00781-7.88086C7.50977-7.88086 7.17773-7.53906 7.17773-7.05078Z"/>
  </g>
  <g transform="matrix(1 0 0 1 305.646 1933)">
   <path d="M14.9707 5.66406C21.9336 5.66406 27.6953-0.0976562 27.6953-7.05078C27.6953-14.0137 21.9238-19.7754 14.9609-19.7754C8.00781-19.7754 2.25586-14.0137 2.25586-7.05078C2.25586-0.0976562 8.01758 5.66406 14.9707 5.66406ZM14.9707 3.84766C8.93555 3.84766 4.08203-1.01562 4.08203-7.05078C4.08203-13.0957 8.92578-17.9492 14.9609-17.9492C21.0059-17.9492 25.8691-13.0957 25.8691-7.05078C25.8691-1.01562 21.0156 3.84766 14.9707 3.84766ZM9.19922-7.05078C9.19922-6.5332 9.57031-6.17188 10.1172-6.17188L14.0625-6.17188L14.0625-2.2168C14.0625-1.67969 14.4336-1.29883 14.9512-1.29883C15.4883-1.29883 15.8594-1.66992 15.8594-2.2168L15.8594-6.17188L19.8145-6.17188C20.3516-6.17188 20.7324-6.5332 20.7324-7.05078C20.7324-7.59766 20.3613-7.96875 19.8145-7.96875L15.8594-7.96875L15.8594-11.9141C15.8594-12.4609 15.4883-12.8418 14.9512-12.8418C14.4336-12.8418 14.0625-12.4609 14.0625-11.9141L14.0625-7.96875L10.1172-7.96875C9.57031-7.96875 9.19922-7.59766 9.19922-7.05078Z"/>
  </g>
  <text style="stroke:none;fill:black;font-family:sans-serif;font-size:13;font-weight:bold;" transform="matrix(1 0 0 1 263 1953)">Design Variations</text>
  <text style="stroke:none;fill:black;font-family:sans-serif;font-size:13;" transform="matrix(1 0 0 1 263 1971)">Symbols are supported in up to nine weights and three scales.</text>
  <text style="stroke:none;fill:black;font-family:sans-serif;font-size:13;" transform="matrix(1 0 0 1 263 1989)">For optimal layout with text and other symbols, vertically align</text>
  <text style="stroke:none;fill:black;font-family:sans-serif;font-size:13;" transform="matrix(1 0 0 1 263 2007)">symbols with the adjacent text.</text>
  <line style="fill:none;stroke:#00AEEF;stroke-width:0.5;opacity:1.0;" x1="776" x2="776" y1="1919" y2="1933"/>
  <g transform="matrix(1 0 0 1 776 1933)">
   <path d="M3.31055 0.15625C3.82812 0.15625 4.08203-0.0390625 4.26758-0.585938L5.52734-4.0332L11.2891-4.0332L12.5488-0.585938C12.7344-0.0390625 12.9883 0.15625 13.4961 0.15625C14.0137 0.15625 14.3457-0.15625 14.3457-0.644531C14.3457-0.810547 14.3164-0.966797 14.2383-1.17188L9.6582-13.3691C9.43359-13.9648 9.0332-14.2676 8.4082-14.2676C7.80273-14.2676 7.39258-13.9746 7.17773-13.3789L2.59766-1.16211C2.51953-0.957031 2.49023-0.800781 2.49023-0.634766C2.49023-0.146484 2.80273 0.15625 3.31055 0.15625ZM6.00586-5.51758L8.37891-12.0898L8.42773-12.0898L10.8008-5.51758Z"/>
  </g>
  <line style="fill:none;stroke:#00AEEF;stroke-width:0.5;opacity:1.0;" x1="793.197" x2="793.197" y1="1919" y2="1933"/>
  <text style="stroke:none;fill:black;font-family:sans-serif;font-size:13;font-weight:bold;" transform="matrix(1 0 0 1 776 1953)">Margins</text>
  <text style="stroke:none;fill:black;font-family:sans-serif;font-size:13;" transform="matrix(1 0 0 1 776 1971)">Leading and trailing margins on the left and right side of each symbol</text>
  <text style="stroke:none;fill:black;font-family:sans-serif;font-size:13;" transform="matrix(1 0 0 1 776 1989)">can be adjusted by modifying the x-location of the margin guidelines.</text>
  <text style="stroke:none;fill:black;font-family:sans-serif;font-size:13;" transform="matrix(1 0 0 1 776 2007)">Modifications are automatically applied proportionally to all</text>
  <text style="stroke:none;fill:black;font-family:sans-serif;font-size:13;" transform="matrix(1 0 0 1 776 2025)">scales and weights.</text>
  <g transform="matrix(1 0 0 1 1289 1933)">
   <path d="M2.8418 1.86523L4.54102 3.57422C5.40039 4.44336 6.38672 4.38477 7.31445 3.35938L18.0078-8.42773L17.041-9.4043L6.42578 2.27539C6.07422 2.67578 5.74219 2.77344 5.27344 2.30469L4.10156 1.14258C3.63281 0.683594 3.74023 0.341797 4.14062-0.0195312L15.6152-10.8203L14.6387-11.7871L3.04688-0.898438C2.06055 0.0195312 1.98242 0.996094 2.8418 1.86523ZM9.25781-16.3281C8.83789-15.918 8.80859-15.3418 9.04297-14.9512C9.27734-14.5898 9.73633-14.3555 10.3809-14.5215C11.8457-14.8633 13.3691-14.9219 14.7949-13.9844L14.209-12.5293C13.8672-11.6992 14.043-11.1133 14.5801-10.5664L16.875-8.25195C17.3633-7.76367 17.7734-7.74414 18.3398-7.8418L19.4043-8.03711L20.0684-7.36328L20.0293-6.80664C19.9902-6.30859 20.1172-5.92773 20.6055-5.44922L21.3672-4.70703C21.8457-4.22852 22.4609-4.19922 22.9297-4.66797L25.8398-7.58789C26.3086-8.05664 26.2891-8.65234 25.8105-9.13086L25.0391-9.89258C24.5605-10.3711 24.1895-10.5273 23.7109-10.4883L23.1348-10.4395L22.4902-11.0742L22.7344-12.1973C22.8613-12.7637 22.7051-13.2031 22.1191-13.7891L19.9219-15.9766C16.582-19.2969 12.1484-19.2188 9.25781-16.3281ZM10.752-15.957C13.1836-17.7344 16.4746-17.4316 18.7012-15.2051L21.1328-12.793C21.3672-12.5586 21.4062-12.373 21.3379-12.0312L21.0156-10.5469L22.5195-9.0625L23.5059-9.12109C23.7598-9.13086 23.8379-9.11133 24.0332-8.91602L24.6094-8.33984L22.168-5.89844L21.5918-6.47461C21.3965-6.66992 21.3672-6.74805 21.377-7.01172L21.4453-7.98828L19.9512-9.47266L18.4277-9.21875C18.1055-9.15039 17.959-9.17969 17.7148-9.41406L15.7129-11.416C15.459-11.6504 15.4297-11.8164 15.5859-12.1875L16.4648-14.2773C14.9023-15.7324 12.8711-16.3574 10.8398-15.7617C10.6836-15.7227 10.625-15.8496 10.752-15.957Z"/>
  </g>
  <text style="stroke:none;fill:black;font-family:sans-serif;font-size:13;font-weight:bold;" transform="matrix(1 0 0 1 1289 1953)">Exporting</text>
  <text style="stroke:none;fill:black;font-family:sans-serif;font-size:13;" transform="matrix(1 0 0 1 1289 1971)">Symbols should be outlined when exporting to ensure the</text>
  <text style="stroke:none;fill:black;font-family:sans-serif;font-size:13;" transform="matrix(1 0 0 1 1289 1989)">design is preserved when submitting to Xcode.</text>
  <text id="template-version" style="stroke:none;fill:black;font-family:sans-serif;font-size:13;text-anchor:end;" transform="matrix(1 0 0 1 3036 1933)">Template v.4.0</text>
  <text style="stroke:none;fill:black;font-family:sans-serif;font-size:13;text-anchor:end;" transform="matrix(1 0 0 1 3036 1951)">Requires Xcode 14 or greater</text>
  <text id="descriptive-name" style="stroke:none;fill:black;font-family:sans-serif;font-size:13;text-anchor:end;" transform="matrix(1 0 0 1 3036 1969)">Generated from IsolateFromEnvironment-authored</text>
  <text style="stroke:none;fill:black;font-family:sans-serif;font-size:13;text-anchor:end;" transform="matrix(1 0 0 1 3036 1987)">Typeset at 100 points</text>
  <text style="stroke:none;fill:black;font-family:sans-serif;font-size:13;" transform="matrix(1 0 0 1 263 726)">Small</text>
  <text style="stroke:none;fill:black;font-family:sans-serif;font-size:13;" transform="matrix(1 0 0 1 263 1156)">Medium</text>
  <text style="stroke:none;fill:black;font-family:sans-serif;font-size:13;" transform="matrix(1 0 0 1 263 1586)">Large</text>
 </g>
 <g id="Guides">
  <g id="H-reference" style="fill:#27AAE1;stroke:none;" transform="matrix(1 0 0 1 339 696)">
   <path d="M0.993654 0L3.63775 0L29.3281-67.1323L30.0303-67.1323L30.0303-70.459L28.1226-70.459ZM11.6885-24.4799L46.9815-24.4799L46.2315-26.7285L12.4385-26.7285ZM55.1196 0L57.7637 0L30.6382-70.459L29.4326-70.459L29.4326-67.1323Z"/>
  </g>
  <line id="Baseline-S" style="fill:none;stroke:#27AAE1;opacity:1;stroke-width:0.5;" x1="263" x2="3036" y1="696" y2="696"/>
  <line id="Capline-S" style="fill:none;stroke:#27AAE1;opacity:1;stroke-width:0.5;" x1="263" x2="3036" y1="625.541" y2="625.541"/>
  <g id="H-reference" style="fill:#27AAE1;stroke:none;" transform="matrix(1 0 0 1 339 1126)">
   <path d="M0.993654 0L3.63775 0L29.3281-67.1323L30.0303-67.1323L30.0303-70.459L28.1226-70.459ZM11.6885-24.4799L46.9815-24.4799L46.2315-26.7285L12.4385-26.7285ZM55.1196 0L57.7637 0L30.6382-70.459L29.4326-70.459L29.4326-67.1323Z"/>
  </g>
  <line id="Baseline-M" style="fill:none;stroke:#27AAE1;opacity:1;stroke-width:0.5;" x1="263" x2="3036" y1="1126" y2="1126"/>
  <line id="Capline-M" style="fill:none;stroke:#27AAE1;opacity:1;stroke-width:0.5;" x1="263" x2="3036" y1="1055.54" y2="1055.54"/>
  <g id="H-reference" style="fill:#27AAE1;stroke:none;" transform="matrix(1 0 0 1 339 1556)">
   <path d="M0.993654 0L3.63775 0L29.3281-67.1323L30.0303-67.1323L30.0303-70.459L28.1226-70.459ZM11.6885-24.4799L46.9815-24.4799L46.2315-26.7285L12.4385-26.7285ZM55.1196 0L57.7637 0L30.6382-70.459L29.4326-70.459L29.4326-67.1323Z"/>
  </g>
  <line id="Baseline-L" style="fill:none;stroke:#27AAE1;opacity:1;stroke-width:0.5;" x1="263" x2="3036" y1="1556" y2="1556"/>
  <line id="Capline-L" style="fill:none;stroke:#27AAE1;opacity:1;stroke-width:0.5;" x1="263" x2="3036" y1="1485.54" y2="1485.54"/>
  <line id="left-margin-Ultralight-S" style="fill:none;stroke:#FF3B30;stroke-width:0.5;opacity:1.0;" x1="512.462" x2="512.462" y1="600.785" y2="720.121"/>
  <line id="right-margin-Ultralight-S" style="fill:none;stroke:#FF3B30;stroke-width:0.5;opacity:1.0;" x1="606.961" x2="606.961" y1="600.785" y2="720.121"/>
  <line id="left-margin-Regular-S" style="fill:none;stroke:#FF3B30;stroke-width:0.5;opacity:1.0;" x1="1401.19" x2="1401.19" y1="600.785" y2="720.121"/>
  <line id="right-margin-Regular-S" style="fill:none;stroke:#FF3B30;stroke-width:0.5;opacity:1.0;" x1="1498.5" x2="1498.5" y1="600.785" y2="720.121"/>
  <line id="left-margin-Black-S" style="fill:none;stroke:#FF3B30;stroke-width:0.5;opacity:1.0;" x1="2883.01" x2="2883.01" y1="600.785" y2="720.121"/>
  <line id="right-margin-Black-S" style="fill:none;stroke:#FF3B30;stroke-width:0.5;opacity:1.0;" x1="2983.79" x2="2983.79" y1="600.785" y2="720.121"/>
  <line id="left-margin-Regular-M" style="fill:none;stroke:#FF3B30;stroke-width:0.5;opacity:1.0;" x1="1388.09" x2="1388.09" y1="1030.79" y2="1150.12"/>
  <line id="right-margin-Regular-M" style="fill:none;stroke:#FF3B30;stroke-width:0.5;opacity:1.0;" x1="1511.6" x2="1511.6" y1="1030.79" y2="1150.12"/>
 </g>
 <g id="Symbols">
  <g id="Black-L" transform="matrix(1 0 0 1 2851.23 1556)">
   <path d="M45.84-28.3502L75.7991-12.3001C80.1756-9.98353 84.1991-9.98261 88.5629-12.3001L118.522-28.3502C123.047-30.7646 124.971-33.5484 124.971-39.1619L124.971-74.2544C124.971-79.0198 123.154-82.181 118.792-84.5089L90.8434-99.5488C85.3885-102.502 78.9881-102.502 73.5332-99.5488L45.5842-84.5089C41.2078-82.181 39.4056-79.0198 39.4056-74.2544L39.4056-39.1619C39.4056-33.5484 41.3291-30.7646 45.84-28.3502ZM52.707-37.5885C50.8932-38.6053 50.1994-39.7144 50.1994-41.5345L50.1994-67.7833L76.5285-53.5689L76.5285-24.5201L52.707-37.5885ZM111.67-37.5885L87.8472-24.5201L87.8472-53.5689L114.177-67.7833L114.177-41.5345C114.177-39.7144 113.469-38.6053 111.67-37.5885ZM82.1805-63.4541L56.4111-77.3595L78.4785-89.2525C80.9601-90.5695 83.4165-90.584 85.8835-89.2525L107.965-77.3595L82.1805-63.4541ZM27.8237-60.3206C30.2989-61.6254 32.7596-60.6508 33.6692-59.0687C34.5787-57.4866 34.5489-54.7809 32.0848-53.2154L-9.89667-28.7103C-11.2056-28.0499-13.5573-27.0108-13.5612-26.4313C-13.5733-25.8375-11.22-24.6912-9.90317-23.935L80.6797 26.9285C81.5269 27.4149 82.5673 27.4149 83.4138 26.9284L174.048-23.9656C174.761-24.3567 177.493-25.8102 177.497-26.3878C177.509-26.9797 175.125-28.0493 174.038-28.7415L132.688-53.2412C130.92-54.3452 130.313-57.008 131.58-59.0686C132.847-61.1293 135.504-61.4061 137.386-60.3891L186.725-31.1546C189.377-29.6205 190.284-26.2246 188.75-23.5703C188.26-22.7238 187.556-22.0222 186.709-21.5369L84.8085 36.9723C83.0988 37.955 80.9961 37.955 79.2855 36.9726L-22.5647-21.5069C-25.2221-23.033-26.1395-26.4242-24.6152-29.0846C-24.1214-29.9447-23.407-30.6568-22.5477-31.1443L27.8237-60.3206Z"/>
  </g>
  <g id="Heavy-L" transform="matrix(1 0 0 1 2555.14 1556)">
   <path d="M44.4685-27.9089L75.8058-10.869C79.7398-8.76655 83.3568-8.7622 87.2782-10.869L118.616-27.9089C123.022-30.2901 124.985-32.9646 124.985-38.703L124.985-74.1194C124.985-78.7817 123.197-81.8446 119.029-84.1088L89.98-99.9778C84.5932-102.93 78.512-102.93 73.1253-99.9778L44.0763-84.1088C39.8866-81.8446 38.1203-78.7817 38.1203-74.1194L38.1203-38.703C38.1203-32.9646 40.0789-30.2901 44.4685-27.9089ZM50.6171-36.2435C48.5984-37.3839 47.8725-38.5748 47.8725-40.5704L47.8725-68.8511L76.4473-53.1782L76.4473-21.9418L50.6171-36.2435ZM112.488-36.2435L86.6537-21.9418L86.6537-53.1782L115.233-68.8511L115.233-40.5704C115.233-38.5748 114.486-37.3839 112.488-36.2435ZM81.5399-62.1036L53.4398-77.4722L77.577-90.7036C80.2525-92.159 82.8528-92.1802 85.507-90.7036L109.661-77.4722L81.5399-62.1036ZM27.1905-60.0453C29.3941-61.1999 31.6452-60.3646 32.5231-58.8371C33.4011-57.3096 33.2847-54.862 31.0582-53.4724L-12.1111-28.4282C-13.367-27.7931-15.5951-26.8661-15.6135-26.2249C-15.6702-25.5167-13.4344-24.4092-12.1176-23.653L79.9835 28.1523C80.8307 28.6387 81.8712 28.6387 82.7176 28.1522L174.87-23.6835C175.566-24.0657 178.076-25.3873 178.094-26.0208C178.151-26.7216 175.962-27.7626 174.86-28.4595L132.505-53.5086C130.846-54.5364 130.273-56.9404 131.423-58.8369C132.573-60.7334 134.991-61.0328 136.718-60.1071L186.029-30.8726C188.681-29.3384 189.587-25.9426 188.054-23.2882C187.564-22.4418 186.859-21.7401 186.013-21.2548L84.1123 37.2544C82.4027 38.237 80.3 38.237 78.5893 37.2547L-23.2609-21.2249C-25.9183-22.751-26.8357-26.1422-25.3113-28.8026C-24.8175-29.6626-24.1031-30.3747-23.2439-30.8623L27.1905-60.0453Z"/>
  </g>
  <g id="Bold-L" transform="matrix(1 0 0 1 2259.21 1556)">
   <path d="M42.5919-27.2993L75.6597-9.07192C79.0787-7.22385 82.2243-7.21358 85.6368-9.07192L118.705-27.2993C122.944-29.6238 124.905-32.1626 124.905-37.9206L124.905-74.0305C124.905-78.4705 123.172-81.3613 119.305-83.5055L88.6968-100.473C83.4878-103.367 77.8354-103.367 72.6265-100.473L42.0186-83.5055C38.1242-81.3613 36.4187-78.4705 36.4187-74.0305L36.4187-37.9206C36.4187-32.1626 38.3692-29.6238 42.5919-27.2993ZM47.8671-34.4496C45.5847-35.7462 44.8403-37.02 44.8403-39.2236L44.8403-70.1348L76.266-52.6767L76.266-18.6247L47.8671-34.4496ZM113.456-34.4496L85.0472-18.6247L85.0472-52.6767L116.483-70.1348L116.483-39.2236C116.483-37.02 115.712-35.7462 113.456-34.4496ZM80.6432-60.3648L49.5559-77.5528L76.4852-92.5315C79.3061-94.1024 82.0172-94.1291 84.8114-92.5315L111.757-77.5528L80.6432-60.3648ZM26.3002-59.7553C28.1682-60.7279 30.1498-60.0558 30.9732-58.6225C31.7966-57.1892 31.5912-55.0673 29.669-53.8956L-15.044-28.1266C-16.2084-27.5348-18.2265-26.7436-18.2697-26.0537C-18.4034-25.2057-16.3673-24.1076-15.0505-23.3513L78.9847 29.6842C79.8319 30.1707 80.8724 30.1707 81.7188 29.6842L175.806-23.3819C176.471-23.7484 178.663-24.8959 178.706-25.5726C178.841-26.408 176.923-27.4529 175.796-28.1579L132.157-53.9395C130.652-54.8632 130.128-56.9433 131.129-58.622C132.13-60.3007 134.242-60.6177 135.77-59.8054L185.03-30.5709C187.682-29.0368 188.589-25.641 187.055-22.9866C186.565-22.1402 185.861-21.4385 185.014-20.9532L83.1135 37.556C81.4039 38.5386 79.3012 38.5386 77.5905 37.5563L-24.2597-20.9233C-26.9171-22.4494-27.8345-25.8405-26.3101-28.5009C-25.8163-29.361-25.1019-30.0731-24.2427-30.5606L26.3002-59.7553Z"/>
  </g>
  <g id="Semibold-L" transform="matrix(1 0 0 1 1963.04 1556)">
   <path d="M41.2983-26.879L75.559-7.83301C78.6229-6.16032 81.4435-6.14598 84.5053-7.83301L118.766-26.879C122.89-29.1645 124.849-31.6096 124.849-37.3812L124.849-73.9692C124.849-78.256 123.155-81.0282 119.495-83.0896L87.8122-100.814C82.7257-103.668 77.369-103.668 72.2827-100.814L40.6-83.0896C36.9092-81.0282 35.2456-78.256 35.2456-73.9692L35.2456-37.3812C35.2456-31.6096 37.1906-29.1645 41.2983-26.879ZM45.9713-33.2129C43.507-34.6172 42.7499-35.9481 42.7499-38.2951L42.7499-71.0198L76.141-52.331L76.141-16.3379L45.9713-33.2129ZM114.123-33.2129L83.9396-16.3379L83.9396-52.331L117.345-71.0198L117.345-38.2951C117.345-35.9481 116.557-34.6172 114.123-33.2129ZM80.0251-59.166L46.8783-77.6084L75.7325-93.7916C78.6536-95.4422 81.4412-95.4727 84.3318-93.7916L113.202-77.6084L80.0251-59.166ZM25.6864-59.5554C27.3231-60.4025 29.1189-59.8429 29.9047-58.4746C30.6905-57.1063 30.4238-55.2088 28.7112-54.1874L-17.0659-27.9187C-18.1672-27.3568-20.0405-26.6592-20.1008-25.9357C-20.2876-24.9914-18.3893-23.8996-17.0724-23.1434L78.2962 30.7403C79.1433 31.2268 80.1838 31.2268 81.0303 30.7403L176.45-23.1739C177.095-23.5297 179.068-24.5571 179.128-25.2637C179.316-26.1918 177.585-27.2394 176.44-27.9499L131.917-54.2366C130.518-55.0886 130.028-56.9453 130.926-58.4738C131.824-60.0024 133.726-60.3315 135.116-59.5975L184.342-30.363C186.994-28.8288 187.9-25.433 186.366-22.7787C185.876-21.9322 185.172-21.2305 184.325-20.7453L82.425 37.7639C80.7153 38.7466 78.6126 38.7466 76.902 37.7643L-24.9482-20.7153C-27.6056-22.2414-28.523-25.6326-26.9987-28.293C-26.5049-29.153-25.7905-29.8651-24.9313-30.3527L25.6864-59.5554Z"/>
  </g>
  <g id="Medium-L" transform="matrix(1 0 0 1 1666.74 1556)">
   <path d="M40.3173-26.5604L75.4826-6.89361C78.2774-5.3539 80.8515-5.33648 83.6473-6.89361L118.813-26.5604C122.849-28.8163 124.807-31.1904 124.807-36.9722L124.807-73.9227C124.807-78.0933 123.142-80.7755 119.639-82.7742L87.1414-101.073C82.1479-103.896 77.0154-103.896 72.0219-101.073L39.5244-82.7742C35.988-80.7755 34.3562-78.0933 34.3562-73.9227L34.3562-36.9722C34.3562-31.1904 36.2969-28.8163 40.3173-26.5604ZM44.5338-32.2752C41.9317-33.7612 41.1649-35.1354 41.1649-37.5911L41.1649-71.6908L76.0462-52.0689L76.0462-14.604L44.5338-32.2752ZM114.629-32.2752L83.0999-14.604L83.0999-52.0689L117.998-71.6908L117.998-37.5911C117.998-35.1354 117.198-33.7612 114.629-32.2752ZM79.5564-58.2571L44.8481-77.6505L75.1617-94.747C78.1589-96.4581 81.0044-96.4914 83.9682-94.747L114.298-77.6505L79.5564-58.2571ZM25.2211-59.4038C26.6823-60.1558 28.3373-59.6814 29.0946-58.3624C29.8519-57.0433 29.5386-55.3161 27.985-54.4087L-18.599-27.761C-19.6525-27.2218-21.416-26.5952-21.4893-25.8462C-21.7163-24.8288-19.9224-23.742-18.6055-22.9857L77.7741 31.5411C78.6212 32.0276 79.6617 32.0276 80.5082 31.5411L176.939-23.0163C177.568-23.3639 179.375-24.3002 179.448-25.0294C179.676-26.0279 178.087-27.0775 176.929-27.7922L131.735-54.4618C130.416-55.2594 129.952-56.9468 130.772-58.3615C131.592-59.7762 133.335-60.1145 134.62-59.4398L183.82-30.2053C186.472-28.6712 187.378-25.2754 185.844-22.621C185.354-21.7745 184.65-21.0729 183.803-20.5876L81.9029 37.9216C80.1932 38.9042 78.0905 38.9042 76.3799 37.9219L-25.4703-20.5577C-28.1277-22.0837-29.0451-25.4749-27.5208-28.1353C-27.027-28.9954-26.3126-29.7075-25.4534-30.195L25.2211-59.4038Z"/>
  </g>
  <g id="Regular-L" transform="matrix(1 0 0 1 1370.57 1556)">
   <path d="M39.0379-26.1448L75.383-5.66831C77.8266-4.30206 80.0794-4.2806 82.5282-5.66831L118.873-26.1448C122.796-28.362 124.752-30.6435 124.752-36.4387L124.752-73.8621C124.752-77.8812 123.125-80.446 119.827-82.3628L86.2665-101.41C81.3942-104.194 76.5541-104.194 71.6819-101.41L38.1214-82.3628C34.7863-80.446 33.196-77.8812 33.196-73.8621L33.196-36.4387C33.196-30.6435 35.1312-28.362 39.0379-26.1448ZM42.6589-31.0521C39.8769-32.6446 39.0975-34.0753 39.0975-36.6728L39.0975-72.566L75.9226-51.727L75.9226-12.3423L42.6589-31.0521ZM115.289-31.0521L82.0045-12.3423L82.0045-51.727L118.851-72.566L118.851-36.6728C118.851-34.0753 118.034-32.6446 115.289-31.0521ZM78.945-57.0715L42.2-77.7055L74.4173-95.9933C77.5136-97.7832 80.4347-97.8202 83.4939-95.9933L115.727-77.7055L78.945-57.0715ZM24.6141-59.2061C25.8464-59.8339 27.3177-59.4709 28.0378-58.2161C28.7579-56.9612 28.384-55.456 27.0378-54.6973L-20.5988-27.5553C-21.5898-27.0457-23.21-26.5117-23.3004-25.7295C-23.5798-24.6168-21.9221-23.5363-20.6053-22.7801L77.0931 32.5856C77.9402 33.0721 78.9807 33.0721 79.8272 32.5856L177.577-22.8106C178.185-23.1476 179.775-23.9652 179.865-24.7238C180.146-25.8141 178.742-26.8663 177.567-27.5866L131.497-54.7556C130.283-55.4823 129.854-56.9488 130.572-58.215C131.29-59.4812 132.825-59.8315 133.973-59.2342L183.139-29.9997C185.791-28.4655 186.697-25.0697 185.163-22.4153C184.673-21.5689 183.969-20.8672 183.122-20.3819L81.2219 38.1273C79.5122 39.1099 77.4095 39.1099 75.6989 38.1276L-26.1513-20.352C-28.8087-21.8781-29.7261-25.2693-28.2018-27.9297C-27.708-28.7897-26.9936-29.5018-26.1344-29.9894L24.6141-59.2061Z"/>
  </g>
  <g id="Light-L" transform="matrix(1 0 0 1 1074.45 1556)">
   <path d="M36.5972-25.3187L74.2875-4.26931C76.5887-3.0091 78.7229-2.97284 81.0717-4.26931L118.762-25.3187C122.434-27.3956 124.068-29.5812 124.068-34.5196L124.068-74.3049C124.068-77.5624 122.601-79.6829 119.907-81.252L84.0044-101.518C79.8555-103.891 75.5275-103.891 71.3787-101.518L35.4763-81.252C32.7581-79.6829 31.3155-77.5624 31.3155-74.3049L31.3155-34.5196C31.3155-29.5812 32.913-27.3956 36.5972-25.3187ZM39.7208-28.9899C36.6922-30.7101 36.0365-32.0791 36.0365-34.76L36.0365-73.2021L75.2774-51.2679L75.2774-9.25577L39.7208-28.9899ZM115.662-28.9899L80.0699-9.25577L80.0699-51.2679L119.347-73.2021L119.347-34.76C119.347-32.0791 118.667-30.7101 115.662-28.9899ZM77.6617-55.4449L38.206-77.382L73.8228-97.4516C76.4099-98.9617 78.9732-98.9855 81.5364-97.4516L117.141-77.382L77.6617-55.4449ZM23.3171-59.3342C24.3225-59.8628 25.5441-59.5518 26.1276-58.5331C26.7111-57.5143 26.3937-56.2724 25.3205-55.666L-23.8488-27.6543C-24.6106-27.2534-25.7178-26.793-25.8705-26.1553C-26.3428-24.9591-25.1722-23.6352-23.8553-22.879L75.5242 33.7476C76.3713 34.234 77.4118 34.234 78.2583 33.7475L177.689-22.9096C178.221-23.2074 179.308-23.8346 179.46-24.4556C179.935-25.637 178.918-26.945 177.679-27.6855L130.474-55.6952C129.483-56.2883 129.14-57.5091 129.728-58.5313C130.316-59.5534 131.578-59.8493 132.53-59.3331L181.57-30.0986C184.222-28.5644 185.128-25.1686 183.594-22.5143C183.104-21.6678 182.4-20.9662 181.553-20.4809L79.653 38.0283C77.9433 39.011 75.8406 39.011 74.13 38.0286L-27.7202-20.4509C-30.3776-21.977-31.295-25.3682-29.7707-28.0286C-29.2769-28.8887-28.5625-29.6008-27.7033-30.0883L23.3171-59.3342Z"/>
  </g>
  <g id="Thin-L" transform="matrix(1 0 0 1 778.515 1556)">
   <path d="M33.3693-24.2262L72.8388-2.41903C74.9514-1.29906 76.9288-1.24321 79.1453-2.41903L118.615-24.2262C121.956-26.1174 123.162-28.1762 123.162-31.9815L123.162-74.8906C123.162-77.1407 121.908-78.6736 120.012-79.7829L81.0126-101.66C77.8204-103.491 74.1698-103.491 70.9778-101.66L31.9779-79.7829C30.0757-78.6736 28.8284-77.1407 28.8284-74.8906L28.8284-31.9815C28.8284-28.1762 29.9793-26.1174 33.3693-24.2262ZM35.835-26.2623C32.4802-28.1516 31.988-29.4391 31.988-32.2301L31.988-74.0434L74.424-50.6608L74.424-5.17357L35.835-26.2623ZM116.155-26.2623L77.5111-5.17357L77.5111-50.6608L120.002-74.0434L120.002-32.2301C120.002-29.4391 119.504-28.1516 116.155-26.2623ZM75.9645-53.2935L32.9236-76.9542L73.0365-99.3805C74.9501-100.52 77.0402-100.527 78.9475-99.3805L119.012-76.9542L75.9645-53.2935ZM21.6017-59.5036C22.3069-59.9009 23.1984-59.6588 23.6012-58.9523C24.004-58.2458 23.7613-57.3522 23.0493-56.9471L-28.1473-27.7851C-28.6058-27.5281-29.0346-27.165-29.2697-26.7184C-29.9971-25.4117-29.4706-23.7661-28.1538-23.0099L73.4492 35.2843C74.2964 35.7708 75.3368 35.7708 76.1833 35.2843L177.838-23.0404C178.269-23.2866 178.691-23.662 178.925-24.1008C179.656-25.4029 179.15-27.049 177.828-27.8164L129.121-56.9378C128.425-57.3544 128.196-58.2502 128.612-58.9495C129.028-59.6489 129.928-59.8729 130.621-59.464L179.495-30.2295C182.147-28.6953 183.053-25.2995 181.519-22.6451C181.029-21.7987 180.325-21.097 179.478-20.6117L77.578 37.8975C75.8683 38.8801 73.7656 38.8801 72.055 37.8978L-29.7952-20.5818C-32.4526-22.1079-33.37-25.4991-31.8457-28.1595C-31.3519-29.0195-30.6375-29.7316-29.7782-30.2192L21.6017-59.5036Z"/>
  </g>
  <g id="Ultralight-L" transform="matrix(1 0 0 1 482.204 1556)">
   <path d="M31.716-23.6666L72.0967-1.47132C74.1128-0.42318 76.0099-0.357301 78.1586-1.47132L118.539-23.6666C121.711-25.4628 122.698-27.4565 122.698-30.6815L122.698-75.1905C122.698-76.9248 121.554-78.1567 120.066-79.0304L79.4802-101.733C76.7781-103.286 73.4744-103.286 70.7724-101.733L30.1861-79.0304C28.7017-78.1567 27.5545-76.9248 27.5545-75.1905L27.5545-30.6815C27.5545-27.4565 28.4767-25.4628 31.716-23.6666ZM33.8448-24.8653C30.3229-26.8411 29.9145-28.0869 29.9145-30.9343L29.9145-74.4743L73.987-50.3499L73.987-3.08268L33.8448-24.8653ZM116.408-24.8653L76.2006-3.08268L76.2006-50.3499L120.338-74.4743L120.338-30.9343C120.338-28.0869 119.932-26.8411 116.408-24.8653ZM75.0951-52.1915L30.218-76.7351L72.6338-100.368C74.2024-101.319 76.0501-101.316 77.6215-100.368L119.97-76.7351L75.0951-52.1915ZM20.7231-59.5904C21.2745-59.9204 21.997-59.7137 22.3072-59.167C22.6174-58.6204 22.4129-57.9053 21.886-57.6033L-30.3489-27.8522C-30.6521-27.6688-30.7335-27.3555-31.0107-27.0068C-31.8688-25.6435-31.6723-23.8331-30.3554-23.0769L72.3864 36.0714C73.2336 36.5579 74.274 36.5579 75.1205 36.0714L177.914-23.1074C178.293-23.3271 178.375-23.5736 178.65-23.9191C179.513-25.2829 179.269-27.1023 177.904-27.8834L128.428-57.5742C127.883-57.9004 127.713-58.6298 128.041-59.1638C128.369-59.6978 129.084-59.885 129.643-59.531L178.432-30.2965C181.084-28.7623 181.99-25.3665 180.457-22.7122C179.967-21.8657 179.262-21.164 178.415-20.6788L76.5152 37.8304C74.8055 38.8131 72.7029 38.8131 70.9922 37.8308L-30.858-20.6488C-33.5154-22.1749-34.4328-25.5661-32.9085-28.2265C-32.4147-29.0865-31.7003-29.7986-30.841-30.2862L20.7231-59.5904Z"/>
  </g>
  <g id="Black-M" transform="matrix(1 0 0 1 2869.28 1126)">
   <path d="M36.3623-30.1672L58.5706-18.5056C62.3222-16.5411 65.7727-16.5413 69.5201-18.5056L91.7285-30.1672C95.3014-32.0471 96.7155-34.2849 96.7155-38.4105L96.7155-65.6397C96.7155-69.3172 95.3045-71.7905 91.841-73.6017L70.8158-84.7063C66.629-86.9389 61.4655-86.9389 57.2788-84.7063L36.2535-73.6017C32.7861-71.7905 31.3791-69.3172 31.3791-65.6397L31.3791-38.4105C31.3791-34.2849 32.7934-32.0471 36.3623-30.1672ZM42.2324-37.9337C40.9699-38.6325 40.4766-39.4131 40.4766-40.6837L40.4766-59.6188L59.2722-49.7114L59.2722-28.7302L42.2324-37.9337ZM85.8622-37.9337L68.8226-28.7302L68.8226-49.7114L87.618-59.6188L87.618-40.6837C87.618-39.4131 87.1208-38.6325 85.8622-37.9337ZM64.0454-58.0365L45.7165-67.7288L61.4948-76.0338C63.1819-76.8973 64.9127-76.9011 66.5959-76.0338L82.3783-67.7288L64.0454-58.0365ZM21.9247-54.9226C24.045-56.0491 26.0977-55.1814 26.8111-53.9407C27.5244-52.7 27.5834-50.4177 25.5071-49.0744L-6.20459-30.4346C-7.23324-29.9161-9.09181-29.0246-9.09089-28.6483C-9.08803-28.2753-7.22984-27.3209-6.20963-26.735L62.8917 12.0325C63.548 12.4094 64.3541 12.4094 65.0099 12.0325L134.151-26.7587C134.708-27.0642 136.947-28.2778 136.946-28.6586C136.943-29.0359 134.982-29.9238 134.143-30.4588L102.818-49.0814C101.384-49.9842 100.897-52.2363 101.962-53.9407C103.026-55.6451 105.252-55.8329 106.816-54.9775L145.05-32.3283C147.104-31.1397 147.806-28.5089 146.618-26.4524C146.239-25.7966 145.693-25.253 145.037-24.877L66.0904 20.4525C64.7659 21.2138 63.1369 21.2138 61.8115 20.4527L-17.0961-24.8539C-19.1549-26.0362-19.8656-28.6635-18.6847-30.7246C-18.3021-31.3909-17.7486-31.9426-17.0829-32.3203L21.9247-54.9226Z"/>
  </g>
  <g id="Heavy-M" transform="matrix(1 0 0 1 2573.13 1126)">
   <path d="M35.2466-29.812L58.6782-17.2356C62.0104-15.4707 65.0744-15.469 68.3986-17.2356L91.8302-29.812C95.3108-31.6725 96.7923-33.8122 96.7923-38.1389L96.7923-65.4669C96.7923-69.1138 95.3951-71.5321 92.0648-73.3131L70.1804-85.1157C65.9936-87.3855 61.0948-87.3855 56.908-85.1157L35.0235-73.3131C31.6817-71.5321 30.296-69.1138 30.296-65.4669L30.296-38.1389C30.296-33.8122 31.7758-31.6725 35.2466-29.812ZM40.4604-36.8091C39.0203-37.6169 38.4843-38.4832 38.4843-39.9177L38.4843-60.604L59.2523-49.3718L59.2523-26.4945L40.4604-36.8091ZM86.628-36.8091L67.8343-26.4945L67.8343-49.3718L88.604-60.604L88.604-39.9177C88.604-38.4832 88.0565-37.6169 86.628-36.8091ZM63.5375-56.8664L43.1804-67.8687L60.6684-77.3179C62.5919-78.3424 64.4964-78.3539 66.4084-77.3179L83.9063-67.8687L63.5375-56.8664ZM21.4253-54.6416C23.301-55.6305 25.1719-54.8941 25.8669-53.6851C26.562-52.476 26.5311-50.4217 24.6619-49.2362L-8.06948-30.1497C-9.06742-29.6458-10.8526-28.8572-10.86-28.4072C-10.883-27.93-9.09473-27.036-8.07452-26.4501L62.3559 13.1217C63.0122 13.4986 63.8183 13.4986 64.4741 13.1217L134.944-26.4738C135.492-26.7741 137.56-27.8764 137.567-28.3245C137.59-28.7999 135.783-29.6362 134.937-30.174L102.733-49.2561C101.386-50.0967 100.924-52.1185 101.886-53.685C102.848-55.2515 104.866-55.4663 106.297-54.6927L144.514-32.0435C146.568-30.8549 147.271-28.224 146.082-26.1676C145.703-25.5118 145.157-24.9682 144.501-24.5922L65.5546 20.7373C64.2301 21.4986 62.601 21.4986 61.2757 20.7376L-17.6319-24.569C-19.6907-25.7513-20.4014-28.3786-19.2205-30.4397C-18.8379-31.1061-18.2844-31.6578-17.6188-32.0355L21.4253-54.6416Z"/>
  </g>
  <g id="Bold-M" transform="matrix(1 0 0 1 2277.04 1126)">
   <path d="M33.9987-29.4146L58.7986-15.815C61.6616-14.2733 64.2933-14.2693 67.1441-15.815L91.944-29.4146C95.3213-31.2534 96.8782-33.2834 96.8782-37.8352L96.8782-65.2736C96.8782-68.8862 95.4965-71.243 92.3152-72.9902L69.4696-85.5737C65.2827-87.8851 60.6801-87.8851 56.4932-85.5737L33.6475-72.9902C30.4462-71.243 29.0845-68.8862 29.0845-65.2736L29.0845-37.8352C29.0845-33.2834 30.6375-31.2534 33.9987-29.4146ZM38.4781-35.551C36.8395-36.4809 36.2557-37.4429 36.2557-39.0607L36.2557-61.706L59.2301-48.9919L59.2301-23.9935L38.4781-35.551ZM87.4846-35.551L66.7287-23.9935L66.7287-48.9919L89.7071-61.706L89.7071-39.0607C89.7071-37.4429 89.1032-36.4809 87.4846-35.551ZM62.9694-55.5575L40.3433-68.0253L59.7439-78.7542C61.9319-79.9591 64.0308-79.9791 66.1988-78.7542L85.6156-68.0253L62.9694-55.5575ZM20.8667-54.3274C22.4689-55.1622 24.1363-54.5728 24.8108-53.3991C25.4854-52.2254 25.3539-50.4261 23.7165-49.4172L-10.1556-29.8311C-11.1192-29.3435-12.8223-28.6699-12.839-28.1375C-12.8909-27.5438-11.1809-26.7174-10.1607-26.1315L61.7565 14.3401C62.4128 14.717 63.2189 14.717 63.8747 14.3401L135.832-26.1552C136.368-26.4496 138.246-27.4274 138.263-27.9509C138.315-28.5359 136.68-29.3146 135.824-29.8553L102.639-49.4516C101.388-50.2225 100.953-51.9867 101.801-53.3989C102.649-54.8112 104.434-55.0562 105.717-54.374L143.915-31.7248C145.969-30.5363 146.671-27.9054 145.483-25.8489C145.103-25.1931 144.558-24.6495 143.902-24.2736L64.9552 21.056C63.6307 21.8173 62.0016 21.8173 60.6763 21.0562L-18.2313-24.2504C-20.2901-25.4327-21.0008-28.06-19.8199-30.1211C-19.4373-30.7874-18.8838-31.3391-18.2182-31.7168L20.8667-54.3274Z"/>
  </g>
  <g id="Semibold-M" transform="matrix(1 0 0 1 1980.76 1126)">
   <path d="M33.1383-29.1406L58.8816-14.8356C61.4211-13.4478 63.7548-13.4423 66.2792-14.8356L92.0225-29.1406C95.3285-30.9645 96.9375-32.9189 96.9375-37.6258L96.9375-65.1403C96.9375-68.7293 95.5664-71.0437 92.4878-72.7676L68.9796-85.8894C64.7926-88.2295 60.3942-88.2295 56.2073-85.8894L32.6989-72.7676C29.5944-71.0437 28.2493-68.7293 28.2493-65.1403L28.2493-37.6258C28.2493-32.9189 29.8528-30.9645 33.1383-29.1406ZM37.1116-34.6837C35.336-35.6977 34.7193-36.7258 34.7193-38.47L34.7193-62.4657L59.2148-48.73L59.2148-22.2693L37.1116-34.6837ZM88.0752-34.6837L65.9665-22.2693L65.9665-48.73L90.4675-62.4657L90.4675-38.47C90.4675-36.7258 89.8248-35.6977 88.0752-34.6837ZM62.5777-54.6551L38.3874-68.1332L59.1066-79.7445C61.477-81.0736 63.7098-81.0995 66.0543-79.7445L86.7939-68.1332L62.5777-54.6551ZM20.4816-54.1107C21.8952-54.8393 23.4223-54.3513 24.0827-53.202C24.7432-52.0527 24.5424-50.4292 23.0647-49.542L-11.5938-29.6114C-12.5337-29.135-14.1801-28.5408-14.2034-27.9516C-14.2752-27.2776-12.6191-26.4977-11.5989-25.9118L61.3433 15.18C61.9996 15.5569 62.8057 15.5569 63.4615 15.18L136.444-25.9355C136.971-26.2259 138.719-27.1178 138.742-27.6933C138.814-28.3539 137.299-29.0928 136.436-29.6356L102.573-49.5864C101.389-50.3093 100.974-51.8958 101.742-53.2017C102.511-54.5076 104.136-54.7735 105.316-54.1543L143.501-31.5052C145.556-30.3166 146.258-27.6857 145.07-25.6293C144.69-24.9735 144.144-24.4299 143.488-24.0539L64.542 21.2756C63.2175 22.0369 61.5884 22.0369 60.2631 21.2759L-18.6445-24.0307C-20.7033-25.213-21.414-27.8403-20.2331-29.9014C-19.8505-30.5678-19.297-31.1195-18.6314-31.4972L20.4816-54.1107Z"/>
  </g>
  <g id="Medium-M" transform="matrix(1 0 0 1 1684.37 1126)">
   <path d="M32.486-28.9329L58.9445-14.093C61.2388-12.8219 63.3465-12.8152 65.6234-14.093L92.082-28.9329C95.334-30.7454 96.9824-32.6425 96.9824-37.467L96.9824-65.0393C96.9824-68.6104 95.6193-70.8926 92.6187-72.5988L68.608-86.1289C64.421-88.4906 60.1774-88.4906 55.9905-86.1289L31.9797-72.5988C28.9486-70.8926 27.616-68.6104 27.616-65.0393L27.616-37.467C27.616-32.6425 29.2578-30.7454 32.486-28.9329ZM36.0754-34.0261C34.196-35.1038 33.5543-36.182 33.5543-38.022L33.5543-63.0418L59.2032-48.5314L59.2032-20.9619L36.0754-34.0261ZM88.523-34.0261L65.3886-20.9619L65.3886-48.5314L91.0441-63.0418L91.0441-38.022C91.0441-36.182 90.3719-35.1038 88.523-34.0261ZM62.2807-53.9708L36.9044-68.215L58.6233-80.4953C61.132-81.9186 63.4665-81.949 65.9447-80.4953L87.6874-68.215L62.2807-53.9708ZM20.1895-53.9464C21.4602-54.5945 22.8809-54.1833 23.5307-53.0525C24.1804-51.9217 23.9271-50.4315 22.5705-49.6366L-12.6843-29.4449C-13.6062-28.977-15.2098-28.4429-15.2378-27.8107C-15.3248-27.0757-13.7096-26.3312-12.6893-25.7453L61.03 15.8169C61.6863 16.1938 62.4924 16.1938 63.1482 15.8169L136.907-25.7689C137.429-26.0563 139.077-26.8831 139.105-27.4979C139.193-28.2159 137.767-28.9247 136.9-29.4691L102.524-49.6885C101.39-50.375 100.989-51.8269 101.698-53.0522C102.407-54.2774 103.91-54.5591 105.013-53.9878L143.188-31.3386C145.243-30.15 145.945-27.5192 144.756-25.4627C144.377-24.8069 143.831-24.2633 143.175-23.8873L64.2287 21.4422C62.9042 22.2035 61.2751 22.2035 59.9498 21.4424L-18.9578-23.8642C-21.0166-25.0465-21.7274-27.6738-20.5464-29.7349C-20.1638-30.4012-19.6104-30.9529-18.9447-31.3306L20.1895-53.9464Z"/>
  </g>
  <g id="Regular-M" transform="matrix(1 0 0 1 1388.09 1126)">
   <path d="M31.6351-28.6619L59.0266-13.1244C61.001-12.0055 62.8139-11.9973 64.7681-13.1244L92.1596-28.6619C95.3412-30.4597 97.041-32.2819 97.041-37.2599L97.041-64.9075C97.041-68.4552 95.6884-70.6955 92.7894-72.3786L68.1234-86.4411C63.9363-88.8312 59.8946-88.8312 55.7077-86.4411L31.0415-72.3786C28.1062-70.6955 26.7899-68.4552 26.7899-64.9075L26.7899-37.2599C26.7899-32.2819 28.4817-30.4597 31.6351-28.6619ZM34.7239-33.1683C32.7091-34.3293 32.0348-35.4728 32.0348-37.4377L32.0348-63.7932L59.1881-48.2723L59.1881-19.2567L34.7239-33.1683ZM89.1071-33.1683L64.6348-19.2567L64.6348-48.2723L91.7962-63.7932L91.7962-37.4377C91.7962-35.4728 91.0856-34.3293 89.1071-33.1683ZM61.8933-53.0784L34.9701-68.3218L57.993-81.4747C60.682-83.0209 63.149-83.0571 65.8017-81.4747L88.8528-68.3218L61.8933-53.0784ZM19.8086-53.7322C20.8928-54.2752 22.1748-53.9642 22.8106-52.8575C23.4464-51.7508 23.1245-50.4346 21.9259-49.76L-14.1067-29.2276C-15.0052-28.7709-16.5527-28.3152-16.5872-27.6268C-16.6938-26.8124-15.1319-26.1139-14.1117-25.528L60.6213 16.6476C61.2776 17.0245 62.0837 17.0245 62.7395 16.6476L137.512-25.5517C138.027-25.835 139.545-26.5769 139.579-27.2432C139.687-28.0359 138.379-28.7053 137.505-29.2518L102.46-49.8218C101.392-50.4608 101.01-51.737 101.64-52.8571C102.271-53.9772 103.616-54.2795 104.617-53.7705L142.779-31.1214C144.834-29.9328 145.536-27.3019 144.348-25.2454C143.968-24.5897 143.422-24.0461 142.766-23.6701L63.82 21.6595C62.4955 22.4207 60.8664 22.4207 59.5411 21.6597L-19.3665-23.6469C-21.4253-24.8292-22.136-27.4565-20.9551-29.5176C-20.5725-30.1839-20.019-30.7356-19.3534-31.1134L19.8086-53.7322Z"/>
  </g>
  <g id="Light-M" transform="matrix(1 0 0 1 1091.91 1126)">
   <path d="M29.4469-27.9213L58.0445-11.8702C59.8911-10.8463 61.5977-10.8248 63.4622-11.8702L92.0598-27.9213C95.017-29.5932 96.4271-31.3295 96.4271-35.5393L96.4271-65.3045C96.4271-68.1694 95.2189-70.0113 92.861-71.3827L66.0953-86.5375C62.5568-88.56 58.9743-88.56 55.4359-86.5375L28.6701-71.3827C26.2878-70.0113 25.104-68.1694 25.104-65.3045L25.104-35.5393C25.104-31.3295 26.493-29.5932 29.4469-27.9213ZM32.0898-31.3194C29.8539-32.5949 29.2904-33.6831 29.2904-35.7228L29.2904-64.3635L58.6096-47.8608L58.6096-16.4895L32.0898-31.3194ZM89.4413-31.3194L62.9003-16.4895L62.9003-47.8608L92.2407-64.3635L92.2407-35.7228C92.2407-33.6831 91.6528-32.5949 89.4413-31.3194ZM60.7428-51.62L31.3892-68.0318L57.46-82.7822C59.6925-84.0775 61.8387-84.1019 64.0467-82.7822L90.1207-68.0318L60.7428-51.62ZM18.6458-53.847C19.5264-54.301 20.5847-54.0368 21.098-53.1417C21.6113-52.2467 21.34-51.1665 20.3863-50.6285L-17.0205-29.3163C-17.7134-28.957-18.8011-28.5674-18.8914-28.0085C-19.1709-27.1192-18.0458-26.2026-17.0256-25.6167L59.2147 17.6893C59.871 18.0662 60.6771 18.0662 61.3329 17.6893L137.613-25.6404C138.059-25.8887 139.127-26.4599 139.216-27.0027C139.498-27.8772 138.536-28.7759 137.605-29.3405L101.542-50.6642C100.674-51.1835 100.37-52.2394 100.884-53.1406C101.398-54.0419 102.497-54.2955 103.323-53.8592L141.373-31.2101C143.427-30.0215 144.129-27.3906 142.941-25.3341C142.562-24.6784 142.016-24.1348 141.36-23.7588L62.4134 21.5707C61.0889 22.332 59.4598 22.332 58.1345 21.571L-20.7731-23.7356C-22.8319-24.9179-23.5426-27.5452-22.3617-29.6063C-21.9791-30.2726-21.4256-30.8243-20.76-31.2021L18.6458-53.847Z"/>
  </g>
  <g id="Thin-M" transform="matrix(1 0 0 1 795.895 1126)">
   <path d="M26.5529-26.9418L56.7456-10.2113C58.4232-9.31316 59.9892-9.27414 61.7351-10.2113L91.9278-26.9418C94.5882-28.4473 95.6152-30.0698 95.6152-33.2638L95.6152-65.8295C95.6152-67.7914 94.5978-69.1065 92.9557-70.0656L63.413-86.665C60.7322-88.2013 57.757-88.2013 55.0764-86.665L25.5336-70.0656C23.8828-69.1065 22.8741-67.7914 22.8741-65.8295L22.8741-33.2638C22.8741-30.0698 23.8627-28.4473 26.5529-26.9418ZM28.6059-28.874C26.0776-30.301 25.6608-31.3162 25.6608-33.4546L25.6608-65.1178L57.8445-47.3165L57.8445-12.8295L28.6059-28.874ZM89.8833-28.874L60.6063-12.8295L60.6063-47.3165L92.8285-65.1178L92.8285-33.4546C92.8285-31.3162 92.403-30.301 89.8833-28.874ZM59.2211-49.6912L26.6533-67.6482L56.755-84.5115C58.3837-85.4749 60.1056-85.4836 61.7256-84.5115L91.7975-67.6482L59.2211-49.6912ZM17.1079-53.9989C17.7194-54.3352 18.4817-54.1327 18.8329-53.5176C19.1842-52.9025 18.9799-52.1346 18.35-51.7771L-20.8743-29.4336C-21.2953-29.2033-21.7748-28.9009-21.939-28.5134C-22.4472-27.525-21.8996-26.3199-20.8793-25.734L57.3544 19.0671C58.0107 19.444 58.8168 19.444 59.4726 19.0671L137.746-25.7577C138.102-25.9596 138.574-26.3051 138.736-26.6846C139.248-27.6672 138.744-28.8692 137.738-29.4579L100.329-51.7782C99.7257-52.1393 99.5237-52.9038 99.8835-53.5157C100.243-54.1275 101.019-54.3166 101.611-53.9766L139.512-31.3274C141.567-30.1388 142.269-27.5079 141.081-25.4515C140.701-24.7957 140.156-24.2521 139.5-23.8761L60.5531 21.4534C59.2286 22.2147 57.5995 22.2147 56.2742 21.4537L-22.6334-23.8529C-24.6922-25.0352-25.403-27.6625-24.222-29.7237C-23.8394-30.39-23.286-30.9417-22.6203-31.3194L17.1079-53.9989Z"/>
  </g>
  <g id="Ultralight-M" transform="matrix(1 0 0 1 499.543 1126)">
   <path d="M25.0706-26.4401L56.0803-9.36161C57.6714-8.52789 59.1653-8.47988 60.8505-9.36161L91.8602-26.4401C94.3686-27.8603 95.1993-29.4246 95.1993-32.0983L95.1993-66.0985C95.1993-67.5977 94.2797-68.643 93.0041-69.391L62.0391-86.7304C59.7977-88.0176 57.1336-88.0176 54.8923-86.7304L23.9272-69.391C22.651-68.643 21.732-67.5977 21.732-66.0985L21.732-32.0983C21.732-29.4246 22.5155-27.8603 25.0706-26.4401ZM26.8216-27.6215C24.1434-29.1261 23.8017-30.1039 23.8017-32.2929L23.8017-65.5041L57.4527-47.0377L57.4527-10.955L26.8216-27.6215ZM90.1098-27.6215L59.4313-10.955L59.4313-47.0377L93.1296-65.5041L93.1296-32.2929C93.1296-30.1039 92.7873-29.1261 90.1098-27.6215ZM58.4417-48.7032L24.2276-67.4517L56.394-85.3972C57.7133-86.1907 59.218-86.1913 60.5367-85.3972L92.6563-67.4517L58.4417-48.7032ZM16.3202-54.0767C16.7938-54.3527 17.4045-54.1819 17.6728-53.7101C17.9411-53.2384 17.7711-52.6305 17.307-52.3654L-22.8482-29.4937C-23.13-29.3294-23.2979-29.0717-23.4999-28.772C-24.1253-27.7329-23.8734-26.38-22.8532-25.7941L56.4015 19.7728C57.0578 20.1497 57.8639 20.1497 58.5197 19.7728L137.814-25.8178C138.124-25.996 138.29-26.2258 138.491-26.5217C139.119-27.5596 138.851-28.9169 137.807-29.518L99.7078-52.3488C99.2398-52.6288 99.0903-53.2441 99.371-53.7077C99.6518-54.1713 100.261-54.3275 100.735-54.0366L138.56-31.3875C140.614-30.1989 141.316-27.568 140.128-25.5116C139.748-24.8558 139.203-24.3122 138.547-23.9362L59.6002 21.3933C58.2757 22.1546 56.6467 22.1546 55.3213 21.3936L-23.5863-23.913C-25.6451-25.0953-26.3558-27.7226-25.1749-29.7837C-24.7923-30.4501-24.2388-31.0018-23.5731-31.3795L16.3202-54.0767Z"/>
  </g>
  <g id="Black-S" transform="matrix(1 0 0 1 2883.01 696)">
   <path d="M28.7076-31.3267L45.8119-22.4346C48.8717-20.8402 51.6867-20.8402 54.7465-22.4346L71.8509-31.3267C74.6659-32.7985 75.7368-34.5769 75.7368-37.7045L75.7368-59.1374C75.7368-61.989 74.6353-63.9207 71.9121-65.3312L55.5727-73.886C52.3293-75.6031 48.2291-75.6031 44.9858-73.886L28.6464-65.3312C25.9232-63.9207 24.8216-61.989 24.8216-59.1374L24.8216-37.7045C24.8216-34.5769 25.8926-32.7985 28.7076-31.3267ZM33.4809-37.5818C32.5323-38.1031 32.1652-38.6857 32.1652-39.6362L32.1652-54.0782L46.4239-46.6579L46.4239-30.6521L33.4809-37.5818ZM67.0776-37.5818L54.1346-30.6521L54.1346-46.6579L68.3933-54.0782L68.3933-39.6362C68.3933-38.6857 68.0261-38.1031 67.0776-37.5818ZM50.2792-53.3729L36.3877-60.6399L48.4127-66.895C49.6367-67.5082 50.9218-67.5082 52.1457-66.895L64.1708-60.6399L50.2792-53.3729ZM17.2659-50.7547C18.9898-51.6742 20.6406-50.957 21.1981-49.9874C21.7555-49.0178 21.8319-47.1739 20.1562-46.0813L-4.46729-31.5632C-5.27077-31.1581-6.72279-30.4321-6.72279-30.167C-6.72279-29.9019-5.27077-29.123-4.47123-28.6638L49.3686 1.54045C49.8829 1.83581 50.5147 1.83581 51.0286 1.54043L104.9-28.6824C105.336-28.9214 107.115-29.8962 107.115-30.167C107.115-30.4378 105.551-31.1626 104.894-31.5822L80.5503-46.0813C79.4125-46.8007 79.0276-48.6226 79.8861-49.9874C80.7446-51.3522 82.5381-51.4883 83.7936-50.7974L113.756-33.0473C115.366-32.1158 115.916-30.054 114.985-28.4424C114.687-27.9284 114.26-27.5024 113.746-27.2077L51.8754 8.31697C50.8374 8.91359 49.5607 8.91359 48.5221 8.31716L-13.3178-27.1896C-14.9312-28.1162-15.4883-30.1752-14.5627-31.7905C-14.2629-32.3126-13.8292-32.745-13.3075-33.041L17.2659-50.7547Z"/>
  </g>
  <g id="Heavy-S" transform="matrix(1 0 0 1 2586.71 696)">
   <path d="M28.0331-31.1175L46.0295-21.5088C48.7469-20.0728 51.2449-20.0728 53.9543-21.5088L71.9507-31.1175C74.7153-32.5888 75.881-34.2944 75.881-37.6921L75.881-58.9389C75.881-61.8515 74.7728-63.7872 72.0943-65.2116L55.2884-74.2238C51.9621-76.0197 48.0297-76.0197 44.7034-74.2238L27.8974-65.2116C25.2109-63.7872 24.1108-61.8515 24.1108-58.9389L24.1108-37.6921C24.1108-34.2944 25.2764-32.5888 28.0331-31.1175ZM32.302-36.8562C31.2299-37.4561 30.812-38.1191 30.812-39.2002L30.812-54.8478L46.4808-46.42L46.4808-29.0936L32.302-36.8562ZM67.6898-36.8562L53.511-29.0936L53.511-46.42L69.1798-54.8478L69.1798-39.2002C69.1798-38.1191 68.7538-37.4561 67.6898-36.8562ZM49.9919-52.5585L34.6763-60.7966L47.774-67.8261C49.2585-68.6092 50.7333-68.6173 52.2097-67.8261L65.3156-60.7966L49.9919-52.5585ZM16.9874-50.4998C18.5282-51.3128 20.052-50.7021 20.6095-49.7325C21.1669-48.7629 21.16-47.0837 19.6302-46.1087L-5.68987-31.3082C-6.49336-30.9032-7.94137-30.2567-7.94137-29.9121C-7.94137-29.5674-6.49336-28.868-5.69382-28.4089L49.0901 2.33883C49.6044 2.6342 50.2362 2.6342 50.7501 2.33881L105.565-28.4274C106.001-28.6664 107.693-29.5679 107.693-29.9121C107.693-30.2563 106.217-30.9077 105.559-31.3272L80.5952-46.1231C79.5057-46.8046 79.1321-48.4577 79.9179-49.7325C80.7038-51.0073 82.3506-51.1727 83.5151-50.5425L113.477-32.7923C115.087-31.8609 115.638-29.799 114.706-28.1874C114.409-27.6735 113.981-27.2474 113.467-26.9528L51.5969 8.57193C50.5589 9.16854 49.2822 9.16854 48.2436 8.57211L-13.5963-26.9346C-15.2098-27.8612-15.7668-29.9202-14.8412-31.5355C-14.5414-32.0577-14.1077-32.4901-13.586-32.7861L16.9874-50.4998Z"/>
  </g>
  <g id="Bold-S" transform="matrix(1 0 0 1 2290.46 696)">
   <path d="M27.2787-30.8835L46.2728-20.4733C48.6072-19.2146 50.7508-19.2146 53.0681-20.4733L72.0622-30.8835C74.7707-32.3543 76.0422-33.9783 76.0422-37.6783L76.0422-58.7168C76.0422-61.6978 74.9266-63.6378 72.2982-65.0778L54.9705-74.6017C51.5514-76.4856 47.8066-76.4856 44.3876-74.6017L27.0598-65.0778C24.4143-63.6378 23.3158-61.6978 23.3158-58.7168L23.3158-37.6783C23.3158-33.9783 24.5873-32.3543 27.2787-30.8835ZM30.9834-36.0447C29.7731-36.7326 29.2985-37.4853 29.2985-38.7125L29.2985-55.7087L46.5445-46.154L46.5445-27.3505L30.9834-36.0447ZM68.3746-36.0447L52.8135-27.3505L52.8135-46.154L70.0595-55.7087L70.0595-38.7125C70.0595-37.4853 69.5678-36.7326 68.3746-36.0447ZM49.6705-51.6476L32.7621-60.972L47.0597-68.8675C48.8357-69.8406 50.5224-69.8577 52.2813-68.8675L66.596-60.972L49.6705-51.6476ZM16.6759-50.2146C18.0119-50.9086 19.3937-50.4169 19.9512-49.4473C20.5086-48.4777 20.4085-46.9829 19.0418-46.1393L-7.05729-31.0231C-7.86077-30.618-9.30431-30.0605-9.30431-29.6269C-9.30431-29.1933-7.86077-28.5829-7.06123-28.1237L48.7786 3.23179C49.2929 3.52715 49.9247 3.52715 50.4386 3.23177L106.31-28.1422C106.746-28.3812 108.339-29.2006 108.339-29.6269C108.339-30.0532 106.961-30.6225 106.304-31.042L80.6455-46.1699C79.6098-46.8089 79.249-48.2732 79.9535-49.4473C80.6581-50.6215 82.1409-50.8198 83.2036-50.2573L113.166-32.5072C114.776-31.5757 115.326-29.5139 114.395-27.9022C114.097-27.3883 113.67-26.9623 113.156-26.6676L51.2854 8.85708C50.2474 9.4537 48.9707 9.4537 47.9321 8.85727L-13.9078-26.6495C-15.5212-27.576-16.0783-29.6351-15.1527-31.2503C-14.8529-31.7725-14.4192-32.2049-13.8975-32.5009L16.6759-50.2146Z"/>
  </g>
  <g id="Semibold-S" transform="matrix(1 0 0 1 1994.06 696)">
   <path d="M26.7586-30.7222L46.4406-19.7593C48.511-18.6229 50.4101-18.6229 52.4572-19.7593L72.1392-30.7222C74.8088-32.1926 76.1534-33.7605 76.1534-37.6688L76.1534-58.5638C76.1534-61.5918 75.0326-63.5348 72.4388-64.9856L54.7513-74.8622C51.2682-76.8069 47.6528-76.8069 44.1699-74.8622L26.4823-64.9856C23.8651-63.5348 22.7677-61.5918 22.7677-58.5638L22.7677-37.6688C22.7677-33.7605 24.1122-32.1926 26.7586-30.7222ZM30.0744-35.4852C28.7687-36.2337 28.255-37.0484 28.255-38.3763L28.255-56.3022L46.5884-45.9705L46.5884-26.1487L30.0744-35.4852ZM68.8467-35.4852L52.3327-26.1487L52.3327-45.9705L70.6661-56.3022L70.6661-38.3763C70.6661-37.0484 70.129-36.2337 68.8467-35.4852ZM49.4489-51.0197L31.4424-61.0928L46.5672-69.5854C48.5441-70.6896 50.377-70.7129 52.3306-69.5854L67.4787-61.0928L49.4489-51.0197ZM16.4612-50.018C17.6559-50.63 18.9398-50.2203 19.4973-49.2507C20.0547-48.2811 19.8903-46.9134 18.6361-46.1604L-8.00005-30.8265C-8.80353-30.4214-10.244-29.9253-10.244-29.4303C-10.244-28.9354-8.80353-28.3863-8.00399-27.9271L48.5638 3.84744C49.0782 4.1428 49.7099 4.1428 50.2238 3.84742L106.823-27.9456C107.259-28.1846 108.785-28.9474 108.785-29.4303C108.785-29.9132 107.475-30.4259 106.817-30.8454L80.6802-46.2021C79.6817-46.8119 79.3296-48.1459 79.9781-49.2507C80.6266-50.3555 81.9963-50.5764 82.9889-50.0607L112.951-32.3106C114.561-31.3791 115.111-29.3173 114.18-27.7056C113.883-27.1917 113.455-26.7657 112.941-26.471L51.0707 9.05368C50.0326 9.6503 48.7559 9.6503 47.7173 9.05387L-14.1225-26.4529C-15.736-27.3794-16.293-29.4385-15.3675-31.0537C-15.0677-31.5759-14.6339-32.0083-14.1122-32.3043L16.4612-50.018Z"/>
  </g>
  <g id="Medium-S" transform="matrix(1 0 0 1 1697.59 696)">
   <path d="M26.3642-30.5999L46.5678-19.218C48.438-18.1743 50.1518-18.1743 51.994-19.218L72.1975-30.5999C74.8378-32.07 76.2377-33.5953 76.2377-37.6616L76.2377-58.4477C76.2377-61.5114 75.113-63.4567 72.5454-64.9157L54.5851-75.0598C51.0535-77.0504 47.5362-77.0504 44.0048-75.0598L26.0444-64.9157C23.4487-63.4567 22.3521-61.5114 22.3521-58.4477L22.3521-37.6616C22.3521-33.5953 23.752-32.07 26.3642-30.5999ZM29.3851-35.061C28.0072-35.8555 27.4638-36.7171 27.4638-38.1214L27.4638-56.7523L46.6217-45.8314L46.6217-25.2375L29.3851-35.061ZM69.2047-35.061L51.968-25.2375L51.968-45.8314L71.1259-56.7523L71.1259-38.1214C71.1259-36.7171 70.5545-35.8555 69.2047-35.061ZM49.2809-50.5435L30.4417-61.1845L46.1937-70.1299C48.323-71.3333 50.2668-71.3613 52.368-70.1299L68.1481-61.1845L49.2809-50.5435ZM16.2983-49.8689C17.386-50.4187 18.5957-50.0712 19.1531-49.1017C19.7106-48.1321 19.4974-46.8607 18.3285-46.1764L-8.71489-30.6774C-9.51837-30.2723-10.9565-29.8227-10.9565-29.2813C-10.9565-28.7398-9.51837-28.2372-8.71883-27.778L48.401 4.31425C48.9153 4.60961 49.5471 4.60961 50.061 4.31423L107.212-27.7966C107.648-28.0356 109.123-28.7554 109.123-29.2813C109.123-29.8071 107.864-30.2769 107.206-30.6964L80.7064-46.2266C79.7361-46.8141 79.3907-48.0495 79.9967-49.1017C80.6027-50.1538 81.8867-50.3919 82.826-49.9117L112.788-32.1615C114.398-31.23 114.949-29.1682 114.017-27.5566C113.72-27.0426 113.292-26.6166 112.778-26.322L50.9078 9.20275C49.8698 9.79937 48.5931 9.79937 47.5545 9.20294L-14.2854-26.3038C-15.8988-27.2304-16.4559-29.2894-15.5303-30.9047C-15.2305-31.4269-14.7968-31.8592-14.2751-32.1553L16.2983-49.8689Z"/>
  </g>
  <g id="Regular-S" transform="matrix(1 0 0 1 1401.19 696)">
   <path d="M25.8498-30.4404L46.7337-18.5119C48.3427-17.5891 49.8149-17.5891 51.3897-18.5119L72.2736-30.4404C74.8755-31.9101 76.3476-33.3798 76.3476-37.6521L76.3476-58.2963C76.3476-61.4066 75.2179-63.3548 72.6844-64.8245L54.3683-75.3174C50.7735-77.3682 47.3841-77.3682 43.7894-75.3174L25.4732-64.8245C22.9055-63.3548 21.81-61.4066 21.81-58.2963L21.81-37.6521C21.81-33.3798 23.2821-31.9101 25.8498-30.4404ZM28.486-34.5077C27.0138-35.3621 26.4318-36.285 26.4318-37.7888L26.4318-57.3392L46.6652-45.65L46.6652-24.0489L28.486-34.5077ZM69.6716-34.5077L51.4924-24.0489L51.4924-45.65L71.7258-57.3392L71.7258-37.7888C71.7258-36.285 71.1096-35.3621 69.6716-34.5077ZM49.0617-49.9224L29.1364-61.304L45.7066-70.84C48.0347-72.1729 50.123-72.2071 52.4168-70.84L69.0212-61.304L49.0617-49.9224ZM16.0859-49.6745C17.0339-50.1431 18.1468-49.8768 18.7043-48.9072C19.2617-47.9376 18.985-46.792 17.9273-46.1973L-9.64729-30.483C-10.4508-30.0779-11.8858-29.6889-11.8858-29.0868C-11.8858-28.4847-10.4508-28.0427-9.65123-27.5836L48.1886 4.92313C48.7029 5.21849 49.3347 5.21849 49.8486 4.92311L107.72-27.6021C108.156-27.8411 109.564-28.505 109.564-29.0868C109.564-29.6686 108.371-30.0824 107.714-30.5019L80.7407-46.2584C79.8071-46.8171 79.4704-47.9237 80.021-48.9072C80.5715-49.8908 81.7437-50.1512 82.6136-49.7172L112.576-31.9671C114.186-31.0356 114.736-28.9738 113.805-27.3621C113.507-26.8482 113.08-26.4222 112.566-26.1275L50.6954 9.39719C49.6574 9.9938 48.3807 9.9938 47.3421 9.39737L-14.4978-26.1094C-16.1112-27.0359-16.6683-29.0949-15.7427-30.7102C-15.4429-31.2324-15.0092-31.6648-14.4875-31.9608L16.0859-49.6745Z"/>
  </g>
  <g id="Light-S" transform="matrix(1 0 0 1 1104.95 696)">
   <path d="M23.9141-29.7852L45.8649-17.4023C47.3609-16.5636 48.739-16.5519 50.2345-17.4023L72.1853-29.7852C74.5887-31.1436 75.8046-32.5372 75.8046-36.1301L75.8046-58.6475C75.8046-61.1537 74.8025-62.7496 72.7477-63.9435L52.5742-75.4027C49.5531-77.1283 46.57-77.1283 43.549-75.4027L23.3754-63.9435C21.297-62.7496 20.3186-61.1537 20.3186-58.6475L20.3186-36.1301C20.3186-32.5372 21.5229-31.1436 23.9141-29.7852ZM26.1558-32.872C24.4881-33.8279 24.0041-34.7019 24.0041-36.2718L24.0041-57.8437L46.1535-45.286L46.1535-21.6009L26.1558-32.872ZM69.9673-32.872L49.9581-21.6009L49.9581-45.286L72.119-57.8437L72.119-36.2718C72.119-34.7019 71.6113-33.8279 69.9673-32.872ZM48.0439-48.6323L25.9688-61.0475L45.2351-71.9966C47.1593-73.1076 48.9639-73.1313 50.8643-71.9966L70.1427-61.0475L48.0439-48.6323ZM15.0573-49.7761C15.8252-50.1659 16.7402-49.941 17.1893-49.1586C17.6383-48.3763 17.4064-47.4395 16.5654-46.9656L-12.2249-30.5614C-12.8465-30.2426-13.8748-29.912-13.9242-29.4245C-14.0772-28.7562-13.0284-28.1212-12.2289-27.6621L46.9443 5.84466C47.4586 6.14002 48.0904 6.14002 48.6043 5.84464L107.809-27.6806C108.184-27.8886 109.194-28.4015 109.243-28.8741C109.396-29.5282 108.511-30.1448 107.803-30.5804L79.9293-47.0036C79.1726-47.4563 78.9044-48.3681 79.3518-49.158C79.7992-49.948 80.7546-50.1654 81.4689-49.7957L111.331-32.0455C112.942-31.1141 113.492-29.0522 112.561-27.4406C112.263-26.9267 111.836-26.5006 111.321-26.206L49.4511 9.31872C48.4131 9.91533 47.1364 9.91533 46.0978 9.3189L-15.7421-26.1878C-17.3555-27.1144-17.9126-29.1734-16.987-30.7887C-16.6872-31.3109-16.2535-31.7433-15.7318-32.0393L15.0573-49.7761Z"/>
  </g>
  <g id="Thin-S" transform="matrix(1 0 0 1 808.855 696)">
   <path d="M21.354-28.9187L44.7158-15.9349C46.0624-15.2074 47.3161-15.1801 48.7067-15.9349L72.0686-28.9187C74.2094-30.1299 75.0863-31.4229 75.0863-34.1171L75.0863-59.1119C75.0863-60.8193 74.2531-61.9491 72.8315-62.7784L50.2014-75.5155C47.9391-76.811 45.4932-76.811 43.231-75.5155L20.6008-62.7784C19.1695-61.9491 18.346-60.8193 18.346-59.1119L18.346-34.1171C18.346-31.4229 19.1961-30.1299 21.354-28.9187ZM23.074-30.7088C21.1475-31.7987 20.7933-32.608 20.7933-34.2653L20.7933-58.511L45.4767-44.8045L45.4767-18.3633L23.074-30.7088ZM70.3583-30.7088L47.9287-18.3633L47.9287-44.8045L72.639-58.511L72.639-34.2653C72.639-32.608 72.275-31.7987 70.3583-30.7088ZM46.6978-46.926L21.7793-60.7082L44.6115-73.5263C46.0015-74.3438 47.4308-74.3536 48.8111-73.5263L71.6261-60.7082L46.6978-46.926ZM13.6968-49.9105C14.2267-50.1962 14.8798-50.0259 15.1856-49.4911C15.4913-48.9564 15.3187-48.2959 14.764-47.9817L-15.634-30.6652C-16.0152-30.4604-16.5053-30.207-16.6201-29.8711C-16.9754-29.1151-16.4375-28.225-15.638-27.7658L45.2986 7.06345C45.813 7.35882 46.4447 7.35882 46.9586 7.06344L107.927-27.7844C108.222-27.9514 108.704-28.2646 108.818-28.5927C109.175-29.3424 108.695-30.2274 107.92-30.6842L78.8561-47.9891C78.3335-48.3018 78.1559-48.9558 78.4668-49.4898C78.7778-50.0237 79.4465-50.1841 79.9548-49.8995L109.686-32.1493C111.296-31.2178 111.846-29.156 110.915-27.5444C110.618-27.0305 110.19-26.6044 109.676-26.3098L47.8054 9.21493C46.7674 9.81155 45.4907 9.81155 44.4521 9.21512L-17.3877-26.2916C-19.0012-27.2182-19.5582-29.2772-18.6327-30.8925C-18.3329-31.4147-17.8991-31.847-17.3774-32.1431L13.6968-49.9105Z"/>
  </g>
  <g id="Ultralight-S" transform="matrix(1 0 0 1 512.462 696)">
   <path d="M20.0428-28.4749L44.1273-15.1833C45.3973-14.5127 46.5873-14.4775 47.9242-15.1833L72.0088-28.4749C74.0151-29.6107 74.7184-30.8521 74.7184-33.0861L74.7184-59.3498C74.7184-60.648 73.9717-61.5391 72.8743-62.1816L48.986-75.5733C47.1124-76.6484 44.9417-76.6484 43.0681-75.5733L19.1797-62.1816C18.0798-61.5391 17.3357-60.648 17.3357-59.3498L17.3357-33.0861C17.3357-30.8521 18.0043-29.6107 20.0428-28.4749ZM21.4955-29.6008C19.4365-30.7593 19.1487-31.5356 19.1487-33.2376L19.1487-58.8527L45.13-44.5579L45.13-16.7051L21.4955-29.6008ZM70.5586-29.6008L46.8893-16.7051L46.8893-44.5579L72.9053-58.8527L72.9053-33.2376C72.9053-31.5356 72.6149-30.7593 70.5586-29.6008ZM46.0084-46.0521L19.6335-60.5344L44.2921-74.3099C45.4085-74.977 46.6456-74.9797 47.7594-74.3099L72.3858-60.5344L46.0084-46.0521ZM13-49.9793C13.4079-50.2117 13.9269-50.0694 14.1593-49.6614C14.3916-49.2535 14.2493-48.7345 13.8414-48.5022L-17.3802-30.7184C-17.6381-30.572-17.8527-30.3581-18.001-30.0999C-18.4598-29.299-18.1837-28.2782-17.3841-27.819L44.4557 7.68771C44.9701 7.98308 45.6018 7.98308 46.1157 7.6877L107.987-27.8375C108.242-27.9835 108.453-28.1945 108.6-28.4486C109.062-29.2473 108.789-30.2696 107.981-30.7374L78.3065-48.4939C77.9036-48.7349 77.7725-49.2569 78.0135-49.6597C78.2546-50.0625 78.7765-50.1937 79.1794-49.9526L108.843-32.2025C110.453-31.271 111.003-29.2092 110.072-27.5975C109.775-27.0836 109.347-26.6576 108.833-26.3629L46.9625 9.16178C45.9245 9.75839 44.6478 9.75839 43.6092 9.16196L-18.2307-26.3448C-19.8441-27.2713-20.4011-29.3304-19.4756-30.9457C-19.1758-31.4678-18.742-31.9002-18.2204-32.1962L13-49.9793Z"/>
  </g>
 </g>
</svg>
